<?xml version="1.0" standalone="no"?>
<!DOCTYPE svg PUBLIC "-//W3C//DTD SVG 1.1//EN" "http://www.w3.org/Graphics/SVG/1.1/DTD/svg11.dtd" >
<svg>
<metadata>
Created by FontForge 20110222 at Mon Mar  7 13:19:18 2011
 By www-data
Typeface (c) The scict.ir Corporation plc. Data (c) The scict.ir Corporation plc/Type Solutions Inc. 2007-2008. All Rights Reserved.Design by Hossein Zahedi.
</metadata>
<defs>
<font id="IranNastaliq" horiz-adv-x="932" >
  <font-face 
    font-family="IranNastaliq"
    font-weight="400"
    font-stretch="normal"
    units-per-em="2048"
    panose-1="2 2 5 5 0 0 0 2 0 3"
    ascent="1638"
    descent="-410"
    x-height="1160"
    cap-height="1540"
    bbox="-353 -677 2499 2049"
    underline-thickness="60"
    underline-position="-40"
    unicode-range="U+0020-2122"
  />
    <missing-glyph />
    <glyph glyph-name="space" unicode=" " horiz-adv-x="78" 
 />
    <glyph glyph-name="quotedbl" unicode="&#x22;" horiz-adv-x="370" 
d="M247 895q77 84 74 47q-9 -32 -56.5 -122t-69.5 -122q-11 -6 -4 46q21 71 56 151zM127 895q77 84 74 47q-9 -32 -56.5 -122t-69.5 -122q-11 -6 -4 46q21 71 56 151z" />
    <glyph glyph-name="numbersign" unicode="#" horiz-adv-x="839" 
d="M126 0l139 295h-156l8 65h178l114 239h-240l8 64h262l140 296h72l-140 -296h181l139 296h73l-139 -296h157l-9 -64h-180l-112 -239h239l-8 -65h-261l-139 -295h-72l139 295h-182l-139 -295h-72zM368 360h181l113 239h-181z" />
    <glyph glyph-name="dollar" unicode="$" horiz-adv-x="676" 
d="M312 -95l21 97q-19 -2 -27 -2q-123 0 -227 34l80 83q93 -62 184 -68l50 254l-43 28q-118 78 -118 163q0 77 63.5 131.5t176.5 72.5l19 101h41l-20 -95q86 0 180 -35l-36 -142h-39q5 23 5 36q0 83 -118 93l-50 -251l36 -27q73 -53 95 -82.5t22 -73.5q0 -74 -63.5 -133
t-169.5 -83l-21 -101h-41zM418 429l45 226q-133 -15 -133 -111q0 -43 67 -96zM384 53q125 22 125 117q0 49 -59 90l-23 16z" />
    <glyph glyph-name="percent" unicode="%" horiz-adv-x="1007" 
d="M346 480q-72 0 -117 46t-45 124q0 128 73.5 218.5t177.5 90.5q75 0 120.5 -46t45.5 -124q0 -129 -74 -219t-181 -90zM280 643q0 -123 78 -123q59 0 107.5 84t48.5 189q0 127 -79 127q-61 0 -108 -84.5t-47 -192.5zM765 0q-73 0 -117.5 46.5t-44.5 123.5q0 128 73 219
t176 91q76 0 121.5 -46.5t45.5 -123.5q0 -130 -74.5 -220t-179.5 -90zM698 164q0 -124 78 -124q60 0 107.5 84.5t47.5 188.5q0 128 -78 128q-61 0 -108 -85t-47 -192zM118 -24l882 1008h85l-883 -1008h-84z" />
    <glyph glyph-name="ampersand" unicode="&#x26;" horiz-adv-x="1087" 
d="M663 88q-139 -112 -272 -112q-113 0 -188 73t-75 183q0 209 305 332q-34 98 -34 153q0 103 86 185t194 82q78 0 124.5 -44.5t46.5 -115.5q0 -178 -287 -269q83 -221 186 -359q100 105 117 236h-133l61 95h172q127 0 196 43l-50 -80q-77 -58 -145 -58h-20
q-52 -156 -176 -268q92 -116 151 -116q52 0 135 56q8 5 22 14l-10 -49q-114 -93 -215 -93q-58 0 -94 21.5t-97 90.5zM552 595q192 75 192 235q0 113 -93 113q-60 0 -96.5 -48t-36.5 -126q0 -72 34 -174zM643 121q-117 171 -199 406q-180 -82 -180 -256q0 -93 56 -154
t142 -61q76 0 181 65z" />
    <glyph glyph-name="quotesingle" unicode="'" horiz-adv-x="287" 
d="M144 895q77 84 74 47q-9 -32 -56.5 -122t-69.5 -122q-11 -6 -4 46q21 71 56 151z" />
    <glyph glyph-name="asterisk" unicode="*" horiz-adv-x="751" 
d="M436 498l45 227l-172 -147h-70l217 186h-216l25 62h216l-149 177h62l115 -137l39 200l85 27l-42 -218l160 128h72l-220 -177h223l-26 -62h-209l149 -186h-61l-117 147l-41 -201z" />
    <glyph glyph-name="plus" unicode="+" horiz-adv-x="745" 
d="M666 286h-252v-253h-83v253h-253v80h253v252h83v-252h252v-80z" />
    <glyph glyph-name="hyphen" unicode="-" horiz-adv-x="578" 
d="M488 209h-384v81h384v-81z" />
    <glyph glyph-name="period" unicode="." horiz-adv-x="497" 
d="M195.752 80.9443q0 23.2646 39.6152 100.991q39.6152 77.7256 51.2354 77.7256q23.2412 9.51758 67.6094 -35.4258t47.5381 -70.3232q0 -33.8398 -36.9746 -97.29q-36.9736 -63.4492 -53.876 -63.4492q-6.33789 3.17188 -43.8398 28.0234
q-37.5029 24.8506 -55.4609 37.541q-15.8467 10.5752 -15.8467 22.207z" />
    <glyph glyph-name="slash" unicode="/" horiz-adv-x="579" 
d="M454 792l-294 -906h-76l294 906h76z" />
    <glyph glyph-name="zero" unicode="0" horiz-adv-x="1407" 
d="M695 -24q-209 0 -364 122q-150 126 -196 337q-32 153 -11.5 280.5t96.5 232.5v-1q74 109 182 161t250 52q217 0 368 -121q153 -123 198 -329q33 -155 12 -285.5t-95 -238.5q-150 -210 -440 -210zM686 97q154 0 217 112q23 42 37.5 103t19.5 146q7 87 3.5 165t-19.5 149
q-57 267 -279 267q-88 0 -146.5 -46.5t-93.5 -137.5q-39 -97 -40.5 -222t31.5 -281q26 -128 93.5 -191.5t176.5 -63.5z" />
    <glyph glyph-name="one" unicode="1" horiz-adv-x="919" 
d="M109 0l28 122h90q38 0 59 4.5t26 9.5q2 6 4 22t3.5 40.5t2.5 55.5t1 66q-1 122 -1 249t-5 248l1 -2q-2 55 -4.5 89.5t-7.5 51.5q-1 18 -61 21l-123 8l-26 119l489 62l-9 -359v2l7 -491q0 -69 2.5 -113.5t4.5 -49.5q6 -33 61 -33h120l29 -122h-691z" />
    <glyph glyph-name="two" unicode="2" horiz-adv-x="1206" 
d="M89 0l27 209q329 199 479 362t123 290q-16 75 -77 128q-65 50 -148 50q-109 0 -165.5 -54t-65.5 -163h-121l-18 280q110 30 203 44t170 14q99 0 183 -20.5t148.5 -58t106 -90.5t55.5 -118q15 -69 0.5 -131t-61.5 -113q-43 -48 -147.5 -128.5t-276.5 -195.5l-127 -87h684
l-38 -218h-934z" />
    <glyph glyph-name="three" unicode="3" horiz-adv-x="1135" 
d="M182 -34q100 -75 184 -112.5t156 -37.5q61 0 107 20t81 61q31 40 42.5 88t-1.5 105q-12 60 -48.5 110.5t-96.5 88.5q-119 80 -289 80q-17 0 -50 -2.5t-81 -6.5l54 216q54 0 102.5 -2t90.5 -5q124 33 192 118q65 86 44 175q-8 39 -29.5 72t-52 56t-68.5 36t-80 13
q-103 0 -156.5 -54t-61.5 -163h-118l-16 274q114 33 210 48.5t174 15.5q88 0 163.5 -18t133.5 -51.5t96 -81t51 -105.5q23 -109 -44.5 -205t-225.5 -178q140 -54 221.5 -140.5t108.5 -207.5q42 -202 -111 -347q-145 -144 -384 -144q-99 0 -207 24t-229 72z" />
    <glyph glyph-name="four" unicode="4" horiz-adv-x="1384" 
d="M21 71l1 130l813 935l153 37l11 -946l304 -14l-23 -197l-276 16q5 -66 10.5 -110.5t10.5 -67.5q3 -23 50 -23h114l37 -125h-677l33 125h104q55 0 63 20q8 14 11.5 62t6.5 127zM766 233q-1 83 -1.5 154t-1 139.5t-1 140t-1.5 156.5q-67 -74 -128.5 -143t-123 -137
t-125 -138.5t-132.5 -147.5z" />
    <glyph glyph-name="five" unicode="5" horiz-adv-x="1147" 
d="M190 -35q78 -71 157 -103.5t160 -32.5q73 0 126 25.5t90 75.5q72 100 36 265q-49 244 -403 244q-35 0 -84 -5t-110 -18l-9 724h839l-42 -236h-644q-2 -31 -4.5 -59t-4.5 -56t-4.5 -57.5t-4.5 -63.5l46 4t43 2q119 0 220.5 -29t186.5 -84q85 -56 141 -131t74 -166
q47 -228 -121 -406q-85 -87 -190 -131.5t-233 -44.5q-166 0 -400 100z" />
    <glyph glyph-name="six" unicode="6" horiz-adv-x="1316" 
d="M1075 1125h-119q-2 36 -5 55.5t-4 27.5q-5 24 -23 44.5t-45 35.5t-61.5 23.5t-74.5 8.5q-84 0 -157.5 -51t-126.5 -138q-45 -78 -67.5 -165.5t-24.5 -184.5q70 96 155 141t191 45q151 0 275 -105q123 -100 157 -255q54 -247 -86 -441q-139 -190 -377 -190
q-103 0 -192.5 35.5t-166.5 107.5q-77 71 -126.5 165.5t-75.5 212.5q-40 189 -10 355t126 311q97 140 233.5 215.5t302.5 75.5q63 0 143 -17.5t171 -52.5zM714 97q58 0 102 30.5t76 94.5q30 65 37 142.5t-14 165.5q-56 277 -258 277q-136 0 -210 -115t-41 -276
q15 -72 44.5 -129.5t74.5 -102.5q42 -42 90 -64.5t99 -22.5z" />
    <glyph glyph-name="seven" unicode="7" horiz-adv-x="1176" 
d="M175 -322q-7 263 153 508l473 652l45 66h-793l46 236h1000l-31 -164q-312 -432 -463 -748.5t-139 -517.5z" />
    <glyph glyph-name="eight" unicode="8" horiz-adv-x="1263" 
d="M105 319q-48 241 268 441q-78 52 -124.5 119t-64.5 148q-17 87 9 161t95 141q68 64 154.5 94.5t192.5 30.5q76 0 144 -19.5t125 -54.5q57 -37 94 -87.5t51 -110.5q22 -105 -39.5 -205t-203.5 -196q129 -79 200.5 -162t91.5 -177q19 -89 -14.5 -172t-105.5 -152
q-75 -71 -171.5 -106.5t-210.5 -35.5q-87 0 -165 22.5t-148 71.5q-73 49 -116.5 111t-61.5 138zM669 851q98 70 136.5 142.5t23.5 148.5q-19 79 -83 126q-67 52 -156 52q-98 0 -153 -65q-51 -64 -33 -163q11 -48 66 -101.5t145 -107.5zM494 680q-88 -59 -123 -143.5
t-15 -190.5q12 -54 40 -98t68 -75t90.5 -47.5t107.5 -16.5q54 0 93.5 18.5t70.5 56.5q62 76 38 178q-13 64 -85.5 131.5t-207.5 144.5z" />
    <glyph glyph-name="nine" unicode="9" horiz-adv-x="1316" 
d="M182 -1h112l16 -71q12 -63 65 -93t144 -30q170 0 281 191q47 77 68.5 162t21.5 188q-33 -43 -72.5 -78t-84 -59.5t-93 -37.5t-98.5 -13q-153 0 -277 105q-64 52 -102.5 117t-53.5 140q-27 128 -7 239.5t89 208.5t163 144.5t212 47.5q103 0 193 -36t165 -108
q73 -68 126 -165t75 -212q84 -382 -113 -665q-192 -292 -538 -292q-54 0 -131 14.5t-180 41.5zM540 1027q-118 0 -180 -122q-64 -124 -26 -299q58 -277 262 -277q140 0 216 111q37 58 48.5 125.5t-5.5 146.5q-16 70 -45.5 126.5t-75.5 102.5q-89 86 -194 86z" />
    <glyph glyph-name="less" unicode="&#x3c;" horiz-adv-x="745" 
d="M637 39l-537 257v60l537 256v-89l-416 -197l416 -198v-89z" />
    <glyph glyph-name="equal" unicode="=" horiz-adv-x="745" 
d="M649 391h-553v80h553v-80zM649 181h-553v80h553v-80z" />
    <glyph glyph-name="greater" unicode="&#x3e;" horiz-adv-x="745" 
d="M644 296l-537 -257v89l417 198l-417 197v89l537 -256v-60z" />
    <glyph glyph-name="question" unicode="?" horiz-adv-x="485" 
d="M456 569q0 -49 -16.5 -87t-43.5 -67t-61 -53.5t-72 -47.5v-114h-90v152q28 17 65.5 41t58.5 44q27 26 42 56t15 69q0 56 -35.5 84t-92.5 28q-50 0 -94.5 -17t-71.5 -35h-6v102q34 14 85 24.5t96 10.5q103 0 162 -52t59 -138zM271 0h-102v105h102v-105z" />
    <glyph glyph-name="at" unicode="@" horiz-adv-x="931" 
d="M869 331q0 -69 -19 -134t-54 -119h-211l-12 58q-34 -28 -62 -45t-77 -17q-77 0 -126 62t-49 179q0 118 60.5 183.5t137.5 65.5q36 0 62 -9t53 -24v24h79v-421h114q19 35 27 91.5t8 102.5q0 164 -83 263.5t-239 99.5q-148 0 -244.5 -107.5t-96.5 -261.5q0 -165 93.5 -267
t244.5 -102q41 0 85.5 5.5t84.5 17.5v-71q-42 -10 -85 -14t-85 -4q-177 0 -293 121.5t-116 314.5q0 184 119.5 310t291.5 126q184 0 288 -119t104 -309zM571 204v259q-28 14 -51.5 20.5t-49.5 6.5q-56 0 -90.5 -42.5t-34.5 -130.5q0 -80 26 -122.5t83 -42.5q30 0 60 14.5
t57 37.5z" />
    <glyph glyph-name="A" unicode="A" horiz-adv-x="2240" 
d="M162 455l53 -11q59 -262 218 -285q14 -2 29 -3t29 -1q63 0 114.5 23t89.5 71q53 60 105 166.5t110 262.5l255 701q-39 3 -74 5.5t-64 2.5q-97 0 -166.5 -25.5t-113.5 -73.5q-22 -25 -30 -57.5t1 -71.5q6 -29 27.5 -71t56.5 -99l-400 -111q-11 121 6.5 215.5t67.5 162.5
t154.5 126t255.5 105t304 71.5t295 23.5l294 -1054v2q169 -473 450 -444l25 -60q-71 -23 -137 -36t-129 -13q-83 0 -159.5 27t-142 85t-117.5 148.5t-87 217.5h-497q-50 -133 -105 -228t-114 -149q-125 -115 -329 -115q-192 0 -389 146zM1033 593h407q-26 86 -48.5 159.5
t-44 145t-44 147t-47.5 164.5z" />
    <glyph glyph-name="B" unicode="B" horiz-adv-x="1664" 
d="M153 2l160 206h33q69 0 112 15.5t61 41.5q19 32 28 105t5 188l-8 842q-85 -4 -147 -29.5t-107 -71.5q-93 -101 -59 -266l10 -43l-237 -124q-21 174 14 301t130 210t251.5 123t377.5 40q153 0 268 -17.5t189 -49.5q80 -38 130.5 -99t67.5 -146q32 -150 -40 -256t-259 -172
q174 -63 270.5 -148t118.5 -189q45 -212 -150 -352q-95 -66 -221.5 -100.5t-284.5 -34.5l-240 5zM825 857h14q171 0 261 101q87 99 57 254q-23 102 -107 153t-235 51zM673 168q35 -6 75.5 -12t82.5 -10.5t83 -7.5t77 -3q316 0 253 290q-16 72 -52.5 128.5t-90.5 95.5
t-124 59.5t-151 20.5h-1l1 -86q0 -147 -47.5 -266.5t-144.5 -202.5z" />
    <glyph glyph-name="C" unicode="C" horiz-adv-x="1449" 
d="M1352 98q-155 -66 -294 -100.5t-264 -34.5q-135 0 -249.5 39t-204 113.5t-151 183.5t-90.5 249q-47 214 -15 396t138 332q113 152 264.5 228t355.5 76q116 0 236.5 -17.5t243.5 -54.5l-31 -326h-122q1 40 -1 66t-6 43q-8 33 -33 62t-70 51q-98 49 -244 49
q-215 0 -333 -191q-42 -66 -70.5 -146.5t-42.5 -180.5q-13 -97 -12 -188.5t20 -178.5q23 -103 65.5 -182t109.5 -137l-1 1q127 -115 313 -115q109 0 229.5 34t257.5 100z" />
    <glyph glyph-name="D" unicode="D" horiz-adv-x="2061" 
d="M157 2l158 206l22 1q7 5 16 3t28 -4h13q93 0 128 56q38 58 35 224l-13 912q-82 -4 -145 -29.5t-108 -71.5q-94 -100 -59 -266l10 -43l-237 -124q-78 674 747 674h292q172 0 303.5 -33.5t222.5 -99.5q189 -134 249 -427q100 -475 -169 -739q-263 -265 -833 -265h-21.5
t-29.5 1h-44zM737 157q76 -11 149 -17.5t147 -6.5q196 0 297 52q43 28 85.5 77.5t72.5 118.5q54 127 66.5 271t-17.5 298q-102 466 -620 466h-99l9 -738q0 -108 -11.5 -191t-37.5 -138q-20 -42 -56.5 -87t-89.5 -87z" />
    <glyph glyph-name="E" unicode="E" horiz-adv-x="1559" 
d="M153 2l160 206h30q71 0 114.5 14t63.5 41q20 26 29.5 91.5t6.5 169.5l-11 876q-84 -4 -147.5 -29.5t-108.5 -71.5q-93 -100 -58 -266l10 -43l-234 -126q-21 172 14 299t128.5 211t247 125t369.5 41h629l-35 -343h-122q-2 38 -3.5 62t-3.5 40q-13 51 -87 76
q-45 14 -126 21.5t-199 7.5h-3l7 -531h482l-131 -163q-123 14 -204 22t-123 8h-23l4 -86q-2 -92 -14 -165.5t-37 -129.5q-21 -43 -52 -85t-79 -84l398 -16q23 0 52.5 -2t51.5 -2q151 0 315 158l3 -169q-152 -196 -319 -196l-49 2z" />
    <glyph glyph-name="F" unicode="F" horiz-adv-x="1623" 
d="M528 683l95 142h93q-1 74 -1.5 145.5t-1.5 142t-2.5 142t-3.5 145.5q-84 -4 -145 -29.5t-105 -71.5q-95 -104 -61 -266l10 -43l-234 -124q-23 174 12 301t129.5 210t251 123t378.5 40h616l-37 -343h-132q8 41 9 67.5t-2 40.5q-21 99 -401 99h-14l8 -579h468l-124 -164
q-87 13 -167 17.5t-155 4.5h-21q0 -68 0.5 -132t2.5 -133q9 -377 -162 -608h2q-87 -115 -200.5 -171.5t-261.5 -56.5q-81 0 -165.5 34t-173.5 107l154 203q65 -94 137.5 -138.5t147.5 -44.5q139 0 195 128q29 69 42.5 195.5t14.5 306.5q-2 41 -3.5 79t-2.5 75.5t-1.5 75.5
t-1.5 80h-187z" />
    <glyph glyph-name="G" unicode="G" horiz-adv-x="1608" 
d="M576 -158q75 -57 156 -87t171 -30q59 0 102 16.5t66 50.5q23 35 35.5 96t16.5 149q-78 -18 -157 -28t-166 -10q-135 0 -248.5 39t-211.5 117q-94 81 -157 186t-89 240q-45 207 -11 380.5t146 322.5q112 146 268.5 221t360.5 75q113 0 234.5 -16.5t252.5 -50.5l-29 -316
h-119q-2 35 -4.5 56t-5.5 33q-15 72 -106 116q-51 26 -113.5 38.5t-134.5 12.5q-251 0 -393 -256q-138 -263 -66 -604q22 -105 68 -185.5t119 -138.5v2q149 -116 356 -116q63 0 113 5t91 17q-2 59 -3 113.5t-1.5 108t-1 108t-1.5 114.5h-138q-165 0 -327 -155l-11 157
q159 191 351 191h395l-15 -350l2 2l7 -235q1 -168 -31.5 -290.5t-103 -202t-179.5 -118t-259 -38.5q-230 0 -432 131z" />
    <glyph glyph-name="H" unicode="H" horiz-adv-x="2180" 
d="M522 732l94 141h107q-2 68 -2.5 131.5t-0.5 126.5t-0.5 126.5t-2.5 131.5q-11 1 -21 2.5t-15 1.5q-74 0 -129.5 -26.5t-97.5 -79.5q-41 -55 -51.5 -118t4.5 -139l8 -34l-236 -126q-91 670 718 670h93l6 -667h554l-6 275q-2 150 31.5 270.5t105.5 211.5q144 183 389 183
q95 0 215 -39l-76 -215q-149 105 -217 105q-45 0 -77.5 -18.5t-49.5 -57.5q-21 -42 -33 -113.5t-8 -178.5v-745q0 -121 3 -199.5t11 -112.5q16 -74 96 -74q26 0 70 4t104 14l1 -127l-548 -101l-6 777h-555q-1 -23 -0.5 -46.5t-2.5 -46.5q4 -145 -35 -266t-117 -214
q-80 -92 -187 -137.5t-240 -45.5q-102 0 -197 35.5t-189 107.5l150 192q144 -181 313 -181q58 0 101.5 27t72.5 78t43.5 125t15.5 169l-1 203h-205z" />
    <glyph glyph-name="I" unicode="I" horiz-adv-x="1091" 
d="M-56 2l161 206h80q99 0 130 61q17 36 24 105.5t6 178.5l-1 778h-303l160 209h735l-168 -209h-150l5 -684q-2 -144 -44.5 -258t-134.5 -199q46 -1 95 -2.5t97.5 -2t94.5 -1t82 -1.5l-162 -207z" />
    <glyph glyph-name="J" unicode="J" horiz-adv-x="1126" 
d="M33 35q142 -217 313 -217q106 0 152 85q26 44 37 122t8 190l-16 1116h-300l156 209h731l-171 -209h-142l12 -955q2 -167 -30.5 -297t-98 -219t-162 -135t-223.5 -46q-196 0 -416 163z" />
    <glyph glyph-name="K" unicode="K" horiz-adv-x="2100" 
d="M179 318q74 -91 153 -137t160 -46q237 0 232 401l-9 853q-11 1 -23 2.5t-16 1.5q-144 0 -227 -106q-78 -108 -49 -257l8 -34l-230 -126q-24 162 9 287t120 210t225.5 129t326.5 44h128l6 -654l359 424v-1q113 135 213.5 203t193.5 68q36 0 85.5 -16t110.5 -48l-143 -198
q-32 22 -57 35t-38 13q-52 0 -123 -43.5t-152 -115.5q-77 -80 -146 -170t-121 -190q60 -78 123.5 -157t124.5 -158q146 -183 257 -278t180 -95q23 0 74.5 29.5t130.5 89.5l2 -157q-75 -80 -148 -119t-139 -39q-74 0 -155.5 44t-172.5 130q-83 79 -196.5 214.5t-261.5 335.5
l2 -44q5 -290 -158 -477q-165 -188 -425 -188q-196 0 -385 143z" />
    <glyph glyph-name="L" unicode="L" horiz-adv-x="1419" 
d="M-37 2l148 206h72q51 0 86 14t50 43q20 31 28 94.5t9 159.5l-7 513q0 113 33.5 213t99.5 178q69 78 156.5 117.5t196.5 39.5q54 0 120 -20.5t148 -60.5l5 -299h-128q-1 30 -2 48.5t-3 26.5q-32 155 -196 155q-163 0 -159 -299l8 -460q-1 -97 -13.5 -184t-35.5 -144
q-18 -40 -49 -77.5t-69 -70.5q115 -2 228 -4.5t226 -4.5q234 0 434 146l4 -155q-60 -67 -107 -110.5t-81 -62.5q-34 -20 -83 -28t-111 -8z" />
    <glyph glyph-name="M" unicode="M" horiz-adv-x="2454" 
d="M179 319q78 -92 156 -138.5t160 -46.5q106 0 166 88q32 44 48 110t18 141q-6 232 -8 457.5t-6 458.5q-10 1 -21 2.5t-14 1.5q-72 0 -131 -30.5t-99 -76.5q-36 -56 -47 -129t7 -161l-233 -126q-23 174 10 299.5t121 209.5q175 161 530 161h100q143 -251 261.5 -500
t216.5 -499l408 998l262 32l-7 -364l2 1l10 -817q-1 -54 4.5 -96t10.5 -71q13 -58 88 -58q23 0 69 5t112 14l-3 -128l-536 -113l-16 1177q-100 -240 -199 -481.5t-196 -480.5l-145 -22l-15 65q-37 173 -121 387.5t-211 462.5v-292q3 -382 -127 -582t-389 -200
q-94 0 -190 35.5t-196 107.5z" />
    <glyph glyph-name="N" unicode="N" horiz-adv-x="2468" 
d="M342 322q159 -187 316 -187q105 0 167 89q31 43 47 109t18 141q-2 232 -5.5 457t-6.5 458q-12 1 -23.5 2.5t-14.5 1.5q-69 0 -129 -30.5t-101 -76.5q-35 -56 -45.5 -129.5t8.5 -160.5l-232 -126q-24 167 7.5 291t116.5 210q85 85 206 127t277 42h117q86 -146 186 -288
t213 -288l176 -228h-1q45 -58 76 -96.5t54 -69.5t43 -59t43 -64q-1 121 -2.5 240.5t-4.5 242.5q-2 155 27 275t87 204t143 127.5t196 43.5q40 0 90 -11t108 -33l-60 -201q-65 43 -115 65.5t-87 22.5q-94 0 -139 -89.5t-45 -261.5l9 -752v2l18 -313l-166 -62
q-35 69 -114.5 183.5t-193.5 261.5l-334 433q-36 44 -58.5 72t-40.5 51t-35 46.5t-40 58.5q2 -73 2.5 -145t2.5 -147q2 -189 -31 -335t-99.5 -245.5t-164.5 -151t-227 -51.5q-94 0 -189.5 35t-200.5 107z" />
    <glyph glyph-name="O" unicode="O" horiz-adv-x="1660" 
d="M787 -37q-262 0 -447 161q-91 81 -153 189t-91 247q-87 405 128 709q212 311 585 311q128 0 239 -41t204 -120q93 -81 152 -187.5t89 -242.5q43 -213 15 -392.5t-132 -331.5q-210 -302 -589 -302zM800 94q123 0 211.5 63.5t151.5 194.5q61 136 73.5 295t-28.5 349
q-50 229 -150 342.5t-255 113.5q-121 0 -213.5 -64t-154.5 -195q-63 -131 -73.5 -288t27.5 -345q103 -466 411 -466z" />
    <glyph glyph-name="P" unicode="P" horiz-adv-x="1623" 
d="M827 719l15 40h36q92 0 159.5 29t116.5 88t63 130.5t-5 160.5q-26 122 -123.5 184t-271.5 65zM150 2l165 206h76q102 0 131 66q16 35 24.5 114.5t10.5 192.5l-13 819q-85 -4 -147 -29.5t-107 -71.5q-93 -100 -58 -266l10 -43l-237 -124q-20 192 16.5 322t133.5 205
q184 147 638 147q160 0 281.5 -19t199.5 -54q82 -38 134.5 -102.5t72.5 -152.5q14 -69 4.5 -138.5t-44.5 -139.5v1q-35 -69 -84 -123.5t-115 -92.5q-152 -82 -367 -82h-49l5 -6q0 -137 -43.5 -246t-134.5 -195q45 -2 93.5 -3t96 -1.5t91.5 -1t81 -1.5l-153 -207z" />
    <glyph glyph-name="Q" unicode="Q" horiz-adv-x="1573" 
d="M68 96l127 161l189 -66q170 13 300 62t215 133q54 57 94.5 136.5t63.5 169.5q23 93 26 190.5t-17 191.5q-17 81 -53 149t-90 123q-50 55 -105.5 81t-115.5 26q-194 0 -294 -198q-53 -102 -66.5 -218.5t14.5 -252.5q53 -242 205 -242q99 0 254 120l-3 -169
q-74 -70 -152 -103.5t-159 -33.5q-146 0 -256 110q-53 54 -87.5 123.5t-54.5 158.5q-34 158 -3.5 300.5t128.5 271.5q99 130 221 195t276 65q111 0 212 -39t189 -114q188 -156 231 -371q38 -174 4 -323.5t-139 -280.5q-92 -118 -236 -206.5t-336 -150.5l582 -219
q88 -33 157.5 -50t123.5 -17q62 0 135.5 31t163.5 95l5 -157q-168 -173 -323 -173q-41 0 -109 16.5t-143 45.5z" />
    <glyph glyph-name="R" unicode="R" horiz-adv-x="1860" 
d="M156 2l161 206h25h13.5t16.5 -2q9 -1 17.5 -1h16.5q83 0 118 61q19 34 27.5 94t9.5 146l-13 894q-84 -4 -146.5 -29.5t-106.5 -71.5q-97 -100 -62 -266l10 -43l-231 -126q-48 379 143 526q184 150 629 150q341 0 499 -67h-2q171 -72 208 -253q30 -138 -38 -255t-239 -214
l303 -375q163 -198 204 -198q29 0 89 59.5t154 183.5l5 -204q-185 -241 -302 -241q-78 0 -173.5 78t-217.5 236l-302 400h-140q0 -16 -0.5 -32t1.5 -32q2 -134 -43.5 -242t-136.5 -194q46 -2 96 -3t98 -1.5t93 -1t83 -1.5l-150 -207zM825 814h222q113 65 153.5 158.5
t12.5 220.5q-46 223 -380 223h-12z" />
    <glyph glyph-name="S" unicode="S" horiz-adv-x="1364" 
d="M206 269q117 -81 220 -120t195 -39q63 0 110.5 17.5t80.5 50.5q25 35 37 81t1 97q-23 106 -207 241l-162 127q-97 69 -159.5 120t-87.5 76q-53 64 -77 169q-42 202 95 347q69 71 159.5 107.5t205.5 36.5q72 0 168 -24.5t216 -75.5l4 -298h-124q-1 7 -2.5 18.5l-3 23
t-3 20.5t-1.5 12q-9 40 -33.5 73.5t-62 57t-86 36.5t-104.5 13q-114 0 -182 -70q-30 -35 -40 -74.5t0 -89.5q8 -32 24.5 -63t37.5 -60q29 -30 84.5 -74t133.5 -101l142 -104q121 -88 192 -173t88 -164q42 -209 -124 -356q-80 -72 -186.5 -108t-238.5 -36q-205 0 -455 114z
" />
    <glyph glyph-name="T" unicode="T" horiz-adv-x="1516" 
d="M334 2l161 206l29 -3h57q94 0 126 63h-1q17 38 24.5 113.5t7.5 186.5l-12 763h-214q-351 0 -294 -275q3 -14 11.5 -41t24.5 -67l-255 -126q-10 183 28.5 316.5t129.5 221.5q184 180 519 180h424q140 0 229.5 8.5t131.5 25.5l-1 -1q32 18 53 59.5t24 108.5l210 91
q-23 -131 -79 -226.5t-150 -156.5q-183 -118 -443 -118h-73l9 -674q3 -191 -48 -306q-21 -42 -52 -82t-75 -79q45 -2 94 -3t96 -1.5t91.5 -1t80.5 -1.5l-150 -207z" />
    <glyph glyph-name="U" unicode="U" horiz-adv-x="2070" 
d="M1441 -45l-3 228q-73 -109 -167.5 -164.5t-203.5 -55.5q-97 0 -179.5 34t-151.5 100q-144 132 -189 352q-14 66 -22 173.5t-8 250.5q-1 131 3 264.5t16 251.5q-13 1 -19 2.5t-11 1.5q-148 0 -231 -107q-37 -56 -47.5 -127.5t9.5 -162.5l-234 -126q-46 335 129.5 502.5
t574.5 167.5h115q-20 -157 -26 -316t-8 -320q0 -72 2.5 -139t6.5 -125.5t9.5 -106t13.5 -81.5q15 -74 42 -133t63.5 -99.5t81.5 -62t95 -21.5q54 0 103.5 25.5t92 73.5t77 116.5t58.5 154.5l-15 1030l286 35l-7 -364v1q4 -180 6 -359t5 -356q0 -100 4.5 -162t9.5 -89
q9 -38 37 -57t79 -19q25 0 61.5 3.5t93.5 14.5l5 -128z" />
    <glyph glyph-name="V" unicode="V" horiz-adv-x="1890" 
d="M1013 -32l-56 298q-82 383 -173 649.5t-192 413.5q-204 299 -399 299q-90 0 -157.5 -64t-119.5 -192l-116 53q164 388 442 388q317 0 553.5 -337.5t393.5 -1026.5l175 411q98 225 139 362.5t29 188.5q2 3 -13.5 4t-45.5 1h-117l-1 124h494l-5 -124h-88l-592 -1412z" />
    <glyph glyph-name="W" unicode="W" horiz-adv-x="2454" 
d="M922 -34l-115 632q-109 508 -269.5 769t-365.5 261q-81 0 -152 -58t-131 -173l-110 63q204 353 440 353q309 0 535 -346q93 -143 174.5 -370t148.5 -543l259 938l140 36q12 -38 26 -81.5t29 -88t31 -88.5t31 -83l45 -124q21 -60 42 -118.5t43.5 -126.5t49 -152t59.5 -193
q25 82 49.5 161.5t45.5 161.5q72 243 102.5 392t17.5 208q-5 20 -87 20h-76l5 124h476l2 -124h-97l-433 -1414l-144 -34l-31 161q-53 254 -125 490t-159 455q-75 -268 -153.5 -535t-150.5 -535z" />
    <glyph glyph-name="X" unicode="X" horiz-adv-x="1626" 
d="M653 741l-217 399q-63 116 -106.5 172t-72.5 56q-56 0 -168 -195l-54 23l-4 146q58 118 124 178t144 60q99 0 201 -95.5t203 -276.5l112 -207l153 253q99 163 197 244.5t199 81.5q77 0 184 -67l-161 -214q-31 14 -49.5 21t-28.5 7q-48 0 -126 -84t-189 -251l-97 -144
q61 -115 124.5 -225.5t124.5 -224.5q64 -112 113 -174t81 -62q67 0 157 167l56 -24l-1 -128q-53 -108 -121 -161t-148 -53q-99 0 -190 77t-179 237l-178 313q-51 -86 -102 -171t-99 -170h1q-171 -286 -330 -286q-54 0 -113 29t-124 89l161 207q57 -71 92 -71q22 0 55 25.5
t74.5 72.5t90.5 112t102 145z" />
    <glyph glyph-name="Y" unicode="Y" horiz-adv-x="1734" 
d="M583 -121q81 -79 160.5 -118t154.5 -39q227 0 244 468l6 159q-72 -146 -149 -219.5t-153 -73.5q-165 0 -256 319l-218 746l1 -1q-81 270 -161 270q-65 0 -215 -168l-6 177q70 90 135.5 135.5t128.5 45.5q71 0 133.5 -37.5t109.5 -103.5q45 -63 89 -168t86 -247v1
l159 -549q24 -82 45 -125t38 -43q18 0 46 27.5t63 78.5q38 55 74 123t65 143l33 859l293 23l-28 -356v1l-30 -786q-30 -839 -598 -839q-91 0 -189.5 27.5t-207.5 86.5z" />
    <glyph glyph-name="Z" unicode="Z" horiz-adv-x="1416" 
d="M61 151l815 1110q-25 -4 -54 -5t-55 -1q-48 0 -103.5 7.5t-126.5 24.5l2 -1l-108 22q-22 7 -39.5 11t-29.5 8q-43 11 -72.5 14t-44.5 3q-33 0 -84 -21t-120 -67l-6 158q132 151 307 151q20 0 54.5 -4.5t85.5 -16.5l-2 3q29 -6 59.5 -14.5t61.5 -14.5q127 -27 263 -27
q75 0 149.5 18t149.5 51l1 -204l-797 -1094q35 5 67.5 7t61.5 2q63 0 179 -18l186 -32q14 -2 38 -5t64 -11q33 -6 59 -10t41 -4q139 0 224 155l55 -20l1 -121q-66 -123 -144.5 -182.5t-168.5 -59.5q-42 0 -101 8.5t-140 24.5l-138 28q-54 12 -104.5 18t-88.5 6
q-59 0 -156.5 -21.5t-238.5 -63.5z" />
    <glyph glyph-name="bracketleft" unicode="[" horiz-adv-x="404" 
d="M247 -32q17 -2 34 -3.5t33 -3.5v-19h-196q-9 0 -16.5 2.5t-13 17t-9.5 44.5t-5.5 86t-2 142t1.5 211q-2 161 -2 259.5t4.5 152.5t14.5 72.5t28 18.5h196v-17q-14 -2 -30.5 -4.5t-36.5 -4.5q-15 -3 -26.5 -4.5t-20 -6t-14.5 -12t-10 -22.5v-864q4 -15 10 -22.5t14.5 -12
t20 -6t26.5 -4.5z" />
    <glyph glyph-name="backslash" unicode="\" horiz-adv-x="489" 
d="M287 -176q-13 0 -19 26q-31 137 -57.5 252t-50 217t-45.5 194.5t-43 184.5q-5 22 4.5 42.5t27.5 37.5q23 20 36.5 1t19.5 -62q11 -82 27 -186t34.5 -217.5t38 -229t37.5 -221.5q3 -17 2 -28t-10 -11h-2z" />
    <glyph glyph-name="bracketright" unicode="]" horiz-adv-x="468" 
d="M134 -32q15 3 26.5 4.5t20 6t14.5 12t10 22.5v864q-4 15 -10 22.5t-14.5 12t-20 6t-26.5 4.5q-20 2 -36.5 4.5t-30.5 4.5v17h196q18 0 28 -18.5t14.5 -72.5t4.5 -152.5t-2 -259.5q1 -125 1 -211t-1.5 -142t-5.5 -86t-9.5 -44.5t-13 -17t-16.5 -2.5h-196v19q16 2 33 3.5
t34 3.5z" />
    <glyph glyph-name="asciicircum" unicode="^" horiz-adv-x="862" 
d="M870 976l-87 -53q-54 61 -90 159q-41 -50 -119 -129q-3 -4 -21 -22l-101 -8q155 114 222 197l98 62q33 -113 98 -206z" />
    <glyph glyph-name="underscore" unicode="_" horiz-adv-x="737" 
d="M52 -94l19 94h595l-18 -94h-596z" />
    <glyph glyph-name="grave" unicode="`" horiz-adv-x="212" 
d="M120 1002q35 -80 56 -151q7 -52 -4 -46q-22 32 -69.5 122t-56.5 122q-3 37 74 -47z" />
    <glyph glyph-name="a" unicode="a" horiz-adv-x="1587" 
d="M818 414q-27 -81 -64 -147.5t-80 -123.5q-134 -167 -283 -167q-240 0 -301 292q-32 149 -2 295.5t118 290.5q91 147 226.5 221t313.5 74q35 0 77.5 -1t87 -3t88.5 -4.5t82 -5.5l-7 -328v2l5 -491q2 -57 5 -93.5t5 -50.5q4 -31 34 -31q85 0 286 290l5 -209
q-182 -248 -367 -248q-175 0 -214 181q-6 26 -8.5 71t-1.5 102zM812 947q-61 22 -112 32.5t-108 10.5q-79 0 -133.5 -53t-83.5 -156q-31 -128 -37.5 -249.5t13.5 -221.5q25 -127 87 -127q70 0 189 167q60 90 106.5 187.5t81.5 211.5z" />
    <glyph glyph-name="b" unicode="b" horiz-adv-x="1302" 
d="M159 1l8 331l1 -2l-9 685q-2 181 37 326.5t120 248.5q82 106 197 158t261 52q53 0 113 -9t132 -29l-148 -193q-72 29 -125.5 44t-92.5 15q-141 0 -190 -102h1q-50 -111 -44 -424l4 -374q27 78 63 145t79 124q69 84 139.5 123.5t148.5 39.5q238 0 301 -291
q32 -151 3 -296.5t-117 -290.5q-92 -146 -223.5 -220.5t-311.5 -74.5q-25 0 -59 1t-72 3zM430 189q58 -23 112.5 -33t108.5 -10q79 0 133.5 54.5t83.5 158.5q31 127 38.5 247.5t-13.5 222.5q-27 127 -91 127q-35 0 -81 -43t-105 -128q-60 -87 -106 -186.5t-82 -213.5z" />
    <glyph glyph-name="c" unicode="c" horiz-adv-x="1157" 
d="M1048 208q-149 -115 -276 -173.5t-237 -58.5q-156 0 -274 105q-120 107 -156 279q-66 298 108 549q88 128 201 189.5t251 61.5q57 0 126 -15t150 -48l-17 -301h-113l-6 48q-2 22 -2.5 38t-2.5 27q-19 105 -179 105q-155 0 -225 -172q-75 -180 -18 -451q54 -237 220 -237
q184 0 447 220z" />
    <glyph glyph-name="d" unicode="d" horiz-adv-x="1415" 
d="M847 413q-27 -81 -63.5 -148t-81.5 -123q-132 -166 -283 -166q-118 0 -194.5 73t-106.5 220q-39 185 24 385q63 201 201 339q46 46 97.5 77t105.5 46q51 15 124.5 23.5t168.5 9.5q9 90 24.5 164t35.5 124q22 54 58 103.5t84 96.5q85 82 189 122.5t228 40.5q51 0 112 -9
t133 -29l-144 -191q-75 29 -129.5 43t-90.5 14q-72 0 -121 -25t-72 -77q-26 -55 -38 -160t-10 -263l7 -785q2 -58 3.5 -93t4.5 -50q8 -32 36 -32q89 0 289 290l1 -209q-90 -126 -180.5 -187t-184.5 -61q-173 0 -214 181q-5 26 -8 70.5t-3 102.5zM839 948q-57 22 -111.5 32
t-109.5 10q-79 0 -133 -53t-83 -156q-30 -127 -36.5 -249t14.5 -222q25 -127 86 -127q73 0 187 167q62 90 108 189t82 211z" />
    <glyph glyph-name="e" unicode="e" horiz-adv-x="1147" 
d="M1048 208q-143 -115 -272.5 -173.5t-243.5 -58.5q-78 0 -145 26.5t-130 82.5q-116 106 -152 275q-64 290 103 545q84 131 190.5 194.5t236.5 63.5q51 0 97 -17.5t82.5 -49.5t63 -77t38.5 -100q22 -103 -12 -191t-123 -160q-81 -66 -186.5 -103.5t-232.5 -40.5l2 -15
q29 -129 87 -194t151 -65q88 0 199 54t247 163v-159zM399 857q-35 -68 -49.5 -144.5t-6.5 -163.5q94 12 163.5 40.5t112.5 71t58.5 98t1.5 121.5q-26 121 -105 121q-54 0 -98 -35.5t-77 -108.5z" />
    <glyph glyph-name="f" unicode="f" horiz-adv-x="868" 
d="M-184 -435q57 -21 109.5 -32.5t98.5 -11.5q64 0 108 22t70.5 69t36 121t4.5 178l-48 1094h-254l95 135h157q0 283 168 472q87 96 200 142t254 46q45 0 101.5 -8t125.5 -24l-152 -209q-63 35 -114 52t-95 17q-134 0 -183 -78q-24 -41 -36 -118.5t-10 -188.5l2 -103h403
l-108 -152q-70 9 -136 13t-130 4h-25l33 -828q9 -199 -26 -354t-111 -263q-155 -222 -463 -222q-42 0 -97 6t-128 17z" />
    <glyph glyph-name="g" unicode="g" horiz-adv-x="1300" 
d="M8 -385q-21 110 38 219t207 214q-109 73 -143 236q-32 154 -2 299.5t121 288.5q184 277 538 277q17 0 49.5 -1t74.5 -2.5t91.5 -4t102.5 -5.5l-7 -329l2 -231q4 -178 9 -265q10 -177 8.5 -301t-17.5 -195h1q-13 -71 -48 -140.5t-92 -136.5q-177 -200 -455 -200
q-91 0 -171.5 19.5t-144.5 53.5q-67 39 -108 90t-54 114zM832 431q-66 -186 -175 -297t-248 -135q-101 -83 -145.5 -160t-31.5 -145q19 -83 117 -144q51 -33 109 -49t123 -16q160 0 225.5 140t53.5 410zM818 945q-59 24 -110 34.5t-103 10.5q-57 0 -102.5 -25t-72.5 -78
q-52 -94 -74 -270q-8 -85 -5.5 -162t13.5 -138q24 -111 82 -111q89 0 181.5 135.5t193.5 407.5z" />
    <glyph glyph-name="h" unicode="h" horiz-adv-x="1407" 
d="M155 -14l3 346l1 -2l-11 685q-4 186 37.5 328.5t119.5 246.5q82 106 197 158t263 52q51 0 110.5 -9t131.5 -29l-143 -193q-72 29 -126 44t-93 15q-70 0 -118 -25t-72 -77q-26 -55 -36.5 -160.5t-8.5 -263.5l3 -378q29 81 67.5 149.5t84.5 125.5q66 82 136.5 121.5
t143.5 39.5q192 0 238 -210q6 -34 10.5 -70.5t5.5 -78.5l4 -483q2 -58 5 -94t5 -50q5 -31 34 -31q45 0 113.5 71t165.5 212l10 -202q-91 -126 -181.5 -187t-185.5 -61q-172 0 -211 181q-12 54 -12 173l-9 485q1 58 -6 89q-5 24 -15.5 38t-25.5 14q-85 0 -177.5 -145.5
t-194.5 -434.5q1 -42 1 -90v-97t0.5 -97t1.5 -91z" />
    <glyph glyph-name="i" unicode="i" horiz-adv-x="1003" 
d="M851 224q-178 -248 -364 -248q-172 0 -212 181q-8 29 -14.5 70.5t-6.5 100.5q2 515 -3 534q-18 54 -54 54q-20 0 -66 -13t-118 -35l-8 129l509 179v-858q2 -58 6 -93t8 -50q7 -32 36 -32q83 0 284 290zM195 1373l61 226l324 243l-69 -289z" />
    <glyph glyph-name="j" unicode="j" horiz-adv-x="702" 
d="M-208 -430q134 -61 223 -61q113 0 170.5 102t59.5 288l-12 777v-2q-3 72 -6.5 119.5t-7.5 68.5q-11 54 -46 54q-20 0 -66 -13t-117 -35l-5 129l513 179l-10 -369v2l11 -616q3 -128 -6.5 -230.5t-24.5 -171.5q-18 -72 -51.5 -136t-79.5 -121q-170 -196 -454 -196
q-47 0 -106 9.5t-130 26.5zM161 1235l61 226l335 245l-78 -291z" />
    <glyph glyph-name="k" unicode="k" horiz-adv-x="1340" 
d="M161 -14l5 346l1 -2q-5 173 -6 343.5t-4 341.5q-3 186 36.5 328t118.5 247q162 210 456 210q52 0 113 -9t132 -29l-142 -193q-144 59 -218 59q-61 0 -104.5 -21t-73.5 -60l-1 1q-17 -23 -28.5 -55t-15.5 -68q-3 -23 -6.5 -60.5t-6 -104t-4.5 -168.5t-3 -255
q24 55 56 101.5t71 88.5q69 66 142.5 99.5t155.5 33.5q196 0 236 -191q18 -86 0.5 -159t-69 -131.5t-136 -101t-199.5 -67.5q163 -174 270 -257t165 -83q74 0 227 176l4 -173q-86 -100 -162.5 -148.5t-140.5 -48.5q-105 0 -234 102q-55 43 -147.5 132t-223.5 228
q1 -109 2 -221.5t3 -215.5zM761 1003q-72 0 -152 -106t-173 -309q182 4 301 105q119 104 87 241q-13 69 -63 69z" />
    <glyph glyph-name="l" unicode="l" horiz-adv-x="990" 
d="M710 231q-200 -255 -379 -255q-169 1 -203 130.5t-31 225.5v683q-4 185 34.5 328t118.5 247q166 210 460 210q106 0 242 -38l-142 -193q-141 59 -219 59q-70 0 -118 -26t-71 -76q-11 -28 -20.5 -71t-15.5 -97.5t-9.5 -119t-2.5 -136.5q2 -194 5 -392t6 -392
q0 -58 2.5 -94t4.5 -50q6 -31 35 -31q28 0 76.5 42.5t124.5 125.5l98 110z" />
    <glyph glyph-name="m" unicode="m" horiz-adv-x="2170" 
d="M255 -14l7 346l1 -2l-8 492q-1 55 -2 91t-3 51q-5 14 -13.5 23t-20.5 9q-43 0 -114 -74t-171 -219l-5 211q86 125 178.5 185.5t188.5 60.5q170 0 210 -179q5 -29 8.5 -71.5t4.5 -100.5l1 -84q29 82 66 151t80 124q61 82 129 121t136 39q41 0 79 -16t69.5 -44.5t54 -67.5
t32.5 -85q6 -32 9.5 -68t2.5 -76l1 -63q27 74 59.5 137.5t73.5 118.5h-2q62 85 127.5 124.5t137.5 39.5q206 0 252 -215q6 -31 9.5 -66.5t2.5 -77.5l5 -483q2 -58 5.5 -94t5.5 -50q5 -15 12.5 -23t22.5 -8q78 0 283 292l6 -211q-91 -126 -181.5 -187t-184.5 -61
q-173 0 -214 181q-5 27 -8 70t-5 103l-8 484q-1 35 -1.5 57t-2.5 33q-5 24 -16 38t-27 14q-77 0 -163 -144.5t-186 -434.5l6 -376l-254 -15l-14 827q-2 32 -4 55t-4 34q-5 26 -15.5 40t-23.5 14q-29 0 -71.5 -43.5t-93.5 -122.5q-48 -82 -96 -189.5t-87 -231.5v-368z" />
    <glyph glyph-name="n" unicode="n" horiz-adv-x="1855" 
d="M419 -14l-1 836q0 56 -0.5 91t-4.5 51q-9 32 -36 32q-40 0 -111 -74t-171 -219l-6 211q87 124 179 185t187 61q173 0 209 -178q8 -28 9.5 -71.5t1.5 -101.5v-87q36 81 74 150.5t84 126.5q131 161 278 161q191 0 238 -210q13 -68 16 -149l3 -483q3 -58 4.5 -94t5.5 -50
q6 -31 37 -31q82 0 283 290l6 -209q-180 -248 -369 -248q-171 0 -211 181q-12 54 -22 173v485q0 110 -16 125.5t-30 15.5q-85 0 -176.5 -145.5t-204.5 -434.5v-375z" />
    <glyph glyph-name="o" unicode="o" horiz-adv-x="1235" 
d="M520 -24q-142 0 -264 112q-117 111 -150 272q-66 299 107 548q87 128 196.5 190t243.5 62q151 0 274 -108q119 -110 153 -270q33 -158 7 -296t-111 -262q-88 -126 -202 -187t-254 -61zM604 122q66 0 112.5 44t79.5 129q35 93 39 197.5t-20 225.5q-32 152 -90 225t-143 73
q-125 0 -191 -179q-35 -94 -39.5 -199.5t20.5 -222.5q64 -293 232 -293z" />
    <glyph glyph-name="p" unicode="p" horiz-adv-x="1407" 
d="M-190 -435q63 -27 119.5 -41.5t107.5 -14.5q226 0 219 396l-10 771q-2 69 -5.5 117.5t-8.5 68.5q-9 54 -45 54q-21 0 -67.5 -13t-118.5 -35l-4 129l515 179l-9 -373l1 2l2 -71q26 77 62.5 142t78.5 121q69 84 139.5 123.5t145.5 39.5q244 0 305 -291q33 -160 3.5 -309
t-126.5 -291q-188 -284 -476 -284q-16 0 -47.5 3t-72.5 8h-1l-7 2q-7 -159 -52 -282t-125 -207t-193 -127.5t-257 -43.5q-38 0 -91.5 8.5t-125.5 25.5zM512 189q59 -23 113.5 -33t108.5 -10q78 0 131.5 54.5t84.5 158.5q30 127 37 247.5t-15 222.5q-25 127 -89 127
q-35 0 -82 -45t-101 -126q-58 -86 -107.5 -188.5t-83.5 -211.5z" />
    <glyph glyph-name="q" unicode="q" horiz-adv-x="1429" 
d="M941 400q-29 -74 -63 -138.5t-76 -118.5q-65 -85 -135 -126t-145 -41q-237 0 -299 292q-30 148 -1 295.5t113 290.5q92 146 226.5 220.5t311.5 74.5q30 0 68.5 -1t82 -3t89 -4.5t88.5 -5.5l-8 -328v2l13 -890q2 -103 6.5 -172.5t11.5 -106.5q13 -56 52 -56q54 0 191 49
l4 -141l-530 -169l9 373l-1 -1zM934 948q-100 42 -217 42q-78 0 -129 -52t-80 -157v1q-69 -265 -24 -474q26 -125 86 -125q46 0 99 53t111 162q69 129 107.5 217t50.5 136l-2 -3z" />
    <glyph glyph-name="r" unicode="r" horiz-adv-x="1401" 
d="M391 -14l-4 828q1 36 -1.5 66.5t-7.5 53.5q-7 29 -16 42.5t-24 13.5q-47 0 -117.5 -72.5t-164.5 -223.5l-9 208q93 132 185 196.5t182 64.5q177 0 216 -194q18 -77 18 -168l2 -73q29 77 65.5 143.5t82.5 124.5q69 84 139.5 124t142.5 40q78 0 177 -50l-116 -231
q-86 51 -118 51q-176 0 -369 -545l7 -384z" />
    <glyph glyph-name="s" unicode="s" horiz-adv-x="988" 
d="M189 239q166 -105 287 -105q35 0 63.5 9t48 25t27 38t1.5 48q-5 29 -40.5 71t-99.5 99l-114 103q-83 75 -131.5 150t-60.5 128q-15 74 6 140.5t75 122.5q55 56 129 84t161 28q46 0 107.5 -10t138.5 -35l3 -270h-115l-10 50q1 10 0 17q-20 102 -165 102q-163 0 -138 -122
q15 -66 148 -189v1l103 -110q85 -79 133.5 -145t60.5 -123q34 -146 -97 -260q-125 -110 -315 -110q-132 0 -349 77z" />
    <glyph glyph-name="t" unicode="t" horiz-adv-x="1202" 
d="M304 1005h-256l93 135h159l-2 271l265 67l1 -338h401l-105 -152q-73 9 -134 13t-109 4h-53l-1 -656q-2 -53 0.5 -89t6.5 -54q5 -24 16 -35.5t33 -11.5q94 0 292 203l8 -178q-169 -208 -358 -208q-198 0 -244 215q-9 37 -12.5 83.5t-3.5 100.5z" />
    <glyph glyph-name="u" unicode="u" horiz-adv-x="1477" 
d="M912 413q-160 -437 -407 -437q-97 0 -155 54.5t-81 162.5q-5 29 -9.5 64t-6.5 75l-8 490q0 55 -1 91t-4 51q-5 14 -13 23t-22 9q-41 0 -111.5 -74t-169.5 -219l-4 211q85 125 177 185.5t187 60.5q174 0 210 -178q14 -56 12 -173l7 -490l2 1q1 -32 2.5 -53.5t3.5 -33.5
q12 -50 36 -50q58 0 168 168q56 90 101 191t80 219l-1 375l271 16l-9 -345v2l7 -491q1 -113 8 -144q6 -31 33 -31q45 0 115.5 72t172.5 218l3 -209q-92 -126 -181 -187t-183 -61q-175 0 -216 181q-15 57 -12 173z" />
    <glyph glyph-name="v" unicode="v" horiz-adv-x="1493" 
d="M604 -32l-31 175v-1q-40 194 -90.5 345t-108.5 262q-54 105 -106.5 156t-102.5 51q-105 0 -189 -234l-55 21l-2 162q68 130 144 192.5t161 62.5q369 0 559 -865l18 33q135 215 190.5 367.5t34.5 246.5q-16 82 -136 191l284 30q44 -47 67 -88t29 -74q22 -96 -27 -207
q-25 -50 -79 -143t-140 -226l-274 -424z" />
    <glyph glyph-name="w" unicode="w" horiz-adv-x="2004" 
d="M583 -32q-4 25 -9.5 55t-11.5 61.5t-12 61.5l-11 55q-48 222 -92 373t-84 236q-72 149 -172 149q-102 0 -199 -240l-56 22l-4 153q63 136 141 201t169 65q168 0 295.5 -206.5t216.5 -623.5v-1q96 214 134 411.5t21 382.5l130 32q112 -213 191 -414t126 -397
q40 78 71 155.5t51 162.5q28 101 36 175.5t-1 126.5q-7 27 -30 69.5t-67 102.5l287 16q20 -36 34 -65t20 -51q18 -89 -42 -254q-31 -84 -82.5 -192.5t-123.5 -251.5l-42 -72l-135 -264l-141 -34l-31 160q-35 166 -71.5 303.5t-79.5 255.5q-61 -217 -130.5 -387.5
t-148.5 -295.5z" />
    <glyph glyph-name="x" unicode="x" horiz-adv-x="1504" 
d="M175 254q32 -16 57 -24t45 -8q137 0 300 262l36 57l-192 298q-31 52 -55.5 78t-38.5 26q-44 0 -129 -160l-57 20v151q115 206 234 206t253 -207l137 -212l26 42l-1 -1q108 190 213 284t205 94q28 0 66 -12t84 -38l-79 -232q-33 18 -57.5 26t-40.5 8q-148 0 -308 -262
l-30 -42l213 -329q67 -105 101 -105q55 0 149 146l51 -19l4 -143q-64 -93 -128.5 -137.5t-130.5 -44.5q-130 0 -246 182l-163 256l-35 -63q-110 -189 -206.5 -282t-187.5 -93q-24 0 -62 9t-95 29z" />
    <glyph glyph-name="y" unicode="y" horiz-adv-x="1469" 
d="M480 -424q63 -32 120 -49.5t111 -17.5q121 0 172 89q26 48 41.5 133t19.5 213l12 437q-25 -65 -49 -118.5t-51 -100.5l-1 3q-93 -165 -176 -165q-48 0 -88.5 23.5t-70.5 71.5q-29 42 -61.5 116t-70.5 180l-126 390q-64 187 -103 187q-43 0 -146 -177l-49 24l-3 121
q60 114 128.5 169t143.5 55q101 0 161 -86q27 -38 59.5 -115.5t73.5 -197.5l112 -330l-1 2q25 -76 45.5 -114.5t32.5 -38.5q23 0 51 41t62 118q10 17 44.5 106.5t96.5 255.5q1 81 4.5 169t4.5 166l273 16l-26 -351q-5 -174 -11 -351.5t-13 -352.5q-8 -180 -52 -321.5
t-122.5 -238.5t-190.5 -148t-257 -51q-110 0 -245 48z" />
    <glyph glyph-name="z" unicode="z" horiz-adv-x="1288" 
d="M142 184l635 725q-23 1 -62 5t-86 9q-31 3 -63.5 6.5t-61.5 4.5q-32 6 -56 8t-44 2q-131 0 -297 -170v183q183 195 354 195q25 0 51.5 -2.5t57.5 -6.5l88 -10q32 -5 61 -6.5t52 -1.5q134 0 278 54l-23 -232l-591 -703h12q37 0 67 -1.5t52 -3.5l71 -10q32 -5 66.5 -8
t63.5 -3q109 0 206 51t186 152l3 -194q-177 -240 -375 -240q-25 0 -61 2.5t-83 8.5l-73 7h1q-32 5 -70.5 6.5t-82.5 1.5q-75 0 -148.5 -14.5t-151.5 -39.5z" />
    <glyph glyph-name="braceleft" unicode="{" horiz-adv-x="820" 
d="M331 556q3 -280 198 -484q118 -133 239 -206q23 -47 38.5 -94.5t15.5 -95.5q-53 96 -142.5 171t-179.5 87q-90 11 -109 -4q16 18 16 44q0 18 -16 74t-16 94q0 21 4 40q-13 -11 -28 -16q-17 -6 -35 -6q-76 0 -103 72q-7 18 -7 38q0 74 71 101q13 3 20 5q-42 31 -90 117
q-29 53 -61 63h-2l-5 1h-5h2l-2 1h5l5 1h2q32 10 61 63q48 86 90 117q-7 2 -20 5q-71 27 -71 101q0 20 7 38q27 72 103 72q18 0 35 -6q15 -5 28 -16q-4 19 -4 40q0 38 16 94t16 74q0 26 -16 44q19 -15 109 -3.5t179.5 86.5t142.5 171q0 -48 -15.5 -95.5t-38.5 -94.5
q-121 -73 -239 -206q-195 -204 -198 -484v-3zM708 1114q-290 -205 -292 -556q2 -352 292 -557q3 -5 9 -17.5t13 -27t12.5 -28t7.5 -19.5q-107 54 -248 217q-141 162 -143 430v3q2 268 143 430.5t248 216.5q-2 -6 -7.5 -19.5t-12.5 -28t-13 -27.5t-9 -17zM304 226q36 0 36 38
t-38 38q-26 0 -35 -23q-3 -6 -3 -14q0 -16 12 -27.5t28 -11.5zM304 889q-16 0 -28 -11.5t-12 -27.5q0 -8 3 -14q9 -23 35 -23q38 0 38 38t-36 38z" />
    <glyph glyph-name="bar" unicode="|" horiz-adv-x="610" 
d="M370 -306h-130v1519h130v-1519z" />
    <glyph glyph-name="asciitilde" unicode="~" 
d="M139 315q62 245 234 245q54 0 173 -69l80 -46q99 -56 150 -56q82 0 142 139h45q-71 -235 -238 -235q-67 0 -170 59l-79 46q-112 65 -150 65q-84 0 -143 -148h-44z" />
    <glyph glyph-name="Adieresis" unicode="&#xc4;" horiz-adv-x="1228" 
d="M162 455l53 -11q59 -262 218 -285q14 -2 29 -3t29 -1q63 0 114.5 23t89.5 71q53 60 105 166.5t110 262.5l255 701q-39 3 -74 5.5t-64 2.5q-97 0 -166.5 -25.5t-113.5 -73.5q-22 -25 -30 -57.5t1 -71.5q6 -29 27.5 -71t56.5 -99l-400 -111q-11 121 6.5 215.5t67.5 162.5
t154.5 126t255.5 105t304 71.5t295 23.5l294 -1054v2q169 -473 450 -444l25 -60q-71 -23 -137 -36t-129 -13q-83 0 -159.5 27t-142 85t-117.5 148.5t-87 217.5h-497q-50 -133 -105 -228t-114 -149q-125 -115 -329 -115q-192 0 -389 146zM1033 593h407q-26 86 -48.5 159.5
t-44 145t-44 147t-47.5 164.5zM878 1276l-87 110l112 86l87 -116zM1224 1276l-89 112l114 84l85 -115z" />
    <glyph glyph-name="Aring" unicode="&#xc5;" horiz-adv-x="1228" 
d="M874.5 1532q-45.5 -69 -116.5 -107l480 -1425h-209l-135 416h-569l-135 -416h-200l479 1422q-72 40 -116.5 108.5t-44.5 154.5q0 128 89 214.5t217 86.5q129 0 217.5 -86t88.5 -215q0 -84 -45.5 -153zM839 584l-230 705l-229 -705h459zM773 1683q0 73 -44 121.5
t-115 48.5q-70 0 -114.5 -48.5t-44.5 -121.5q0 -74 45 -122.5t114 -48.5t114 48.5t45 122.5z" />
    <glyph glyph-name="Ccedilla" unicode="&#xc7;" horiz-adv-x="1230" 
d="M733 -27q-146 0 -268.5 49t-211.5 146t-138 242t-49 333q0 187 47.5 326t138.5 242q89 100 211 152.5t273 52.5q75 0 140.5 -11t121.5 -28q48 -15 98.5 -37.5t99.5 -49.5v-239h-16q-26 24 -67 58t-100 67q-57 31 -124 51t-155 20q-95 0 -180 -39t-149 -115
q-63 -76 -98 -191t-35 -259q0 -153 37 -263.5t101 -186.5q62 -74 146 -111.5t178 -37.5q86 0 159 21t130 53q55 31 95 63.5t63 55.5h15v-236q-49 -23 -92.5 -44t-105.5 -41q-8 -3 -23 -7.5t-21 -5.5q1 -15 3 -39t2 -53q0 -149 -82 -241.5t-227 -92.5q-37 0 -87 6t-90 18v160
h9q24 -11 63 -22.5t79 -11.5q94 0 138 39.5t44 126.5q0 18 -0.5 38t-1.5 45q-18 -1 -33.5 -2t-37.5 -1z" />
    <glyph glyph-name="Eacute" unicode="&#xc9;" horiz-adv-x="1149" 
d="M153 2l160 206h30q71 0 114.5 14t63.5 41q20 26 29.5 91.5t6.5 169.5l-11 876q-84 -4 -147.5 -29.5t-108.5 -71.5q-93 -100 -58 -266l10 -43l-234 -126q-21 172 14 299t128.5 211t247 125t369.5 41h629l-35 -343h-122q-2 38 -3.5 62t-3.5 40q-13 51 -87 76
q-45 14 -126 21.5t-199 7.5h-3l7 -531h482l-131 -163q-123 14 -204 22t-123 8h-23l4 -86q-2 -92 -14 -165.5t-37 -129.5q-21 -43 -52 -85t-79 -84l398 -16q23 0 52.5 -2t51.5 -2q151 0 315 158l3 -169q-152 -196 -319 -196l-49 2zM510 1372q77 84 74 47q-9 -32 -56.5 -122
t-69.5 -122q-11 -6 -4 46q21 71 56 151z" />
    <glyph glyph-name="Ntilde" unicode="&#xd1;" horiz-adv-x="1367" 
d="M201 322q159 -187 316 -187q105 0 167 89q31 43 47 109t18 141q-2 232 -5.5 457t-6.5 458q-12 1 -23.5 2.5t-14.5 1.5q-69 0 -129 -30.5t-101 -76.5q-35 -56 -45.5 -129.5t8.5 -160.5l-232 -126q-24 167 7.5 291t116.5 210q85 85 206 127t277 42h117q86 -146 186 -288
t213 -288l176 -228h-1q45 -58 76 -96.5t54 -69.5t43 -59t43 -64q-1 121 -2.5 240.5t-4.5 242.5q-2 155 27 275t87 204t143 127.5t196 43.5q40 0 90 -11t108 -33l-60 -201q-65 43 -115 65.5t-87 22.5q-94 0 -139 -89.5t-45 -261.5l9 -752v2l18 -313l-166 -62
q-35 69 -114.5 183.5t-193.5 261.5l-334 433q-36 44 -58.5 72t-40.5 51t-35 46.5t-40 58.5q2 -73 2.5 -145t2.5 -147q2 -189 -31 -335t-99.5 -245.5t-164.5 -151t-227 -51.5q-94 0 -189.5 35t-200.5 107zM1110 1985q-10 -156 -74.5 -234t-171.5 -78q-52 0 -96 19t-86 59
q-44 41 -76 62.5t-63 21.5q-49 0 -68.5 -45t-23.5 -121h-140q7 154 76 232.5t169 78.5q51 0 94 -19.5t86 -57.5q43 -39 77.5 -59.5t63.5 -20.5q47 0 68.5 45t24.5 117h140z" />
    <glyph glyph-name="Odieresis" unicode="&#xd6;" horiz-adv-x="1449" 
d="M787 -37q-262 0 -447 161q-91 81 -153 189t-91 247q-87 405 128 709q212 311 585 311q128 0 239 -41t204 -120q93 -81 152 -187.5t89 -242.5q43 -213 15 -392.5t-132 -331.5q-210 -302 -589 -302zM800 94q123 0 211.5 63.5t151.5 194.5q61 136 73.5 295t-28.5 349
q-50 229 -150 342.5t-255 113.5q-121 0 -213.5 -64t-154.5 -195q-63 -131 -73.5 -288t27.5 -345q103 -466 411 -466zM992 1296l-87 110l112 86l87 -116zM1338 1296l-89 112l114 84l85 -115z" />
    <glyph glyph-name="Udieresis" unicode="&#xdc;" horiz-adv-x="1343" 
d="M1441 -45l-3 228q-73 -109 -167.5 -164.5t-203.5 -55.5q-97 0 -179.5 34t-151.5 100q-144 132 -189 352q-14 66 -22 173.5t-8 250.5q-1 131 3 264.5t16 251.5q-13 1 -19 2.5t-11 1.5q-148 0 -231 -107q-37 -56 -47.5 -127.5t9.5 -162.5l-234 -126q-46 335 129.5 502.5
t574.5 167.5h115q-20 -157 -26 -316t-8 -320q0 -72 2.5 -139t6.5 -125.5t9.5 -106t13.5 -81.5q15 -74 42 -133t63.5 -99.5t81.5 -62t95 -21.5q54 0 103.5 25.5t92 73.5t77 116.5t58.5 154.5l-15 1030l286 35l-7 -364v1q4 -180 6 -359t5 -356q0 -100 4.5 -162t9.5 -89
q9 -38 37 -57t79 -19q25 0 61.5 3.5t93.5 14.5l5 -128zM969 1296l-87 110l112 86l87 -116zM1315 1296l-89 112l114 84l85 -115z" />
    <glyph glyph-name="aacute" unicode="&#xe1;" horiz-adv-x="1075" 
d="M905 414q-27 -81 -64 -147.5t-80 -123.5q-134 -167 -283 -167q-240 0 -301 292q-32 149 -2 295.5t118 290.5q91 147 226.5 221t313.5 74q35 0 77.5 -1t87 -3t88.5 -4.5t82 -5.5l-7 -328v2l5 -491q2 -57 5 -93.5t5 -50.5q4 -31 34 -31q85 0 286 290l5 -209
q-182 -248 -367 -248q-175 0 -214 181q-6 26 -8.5 71t-1.5 102zM899 947q-61 22 -112 32.5t-108 10.5q-79 0 -133.5 -53t-83.5 -156q-31 -128 -37.5 -249.5t13.5 -221.5q25 -127 87 -127q70 0 189 167q60 90 106.5 187.5t81.5 211.5zM428 999q77 84 74 47q-9 -32 -56.5 -122
t-69.5 -122q-11 -6 -4 46q21 71 56 151z" />
    <glyph glyph-name="agrave" unicode="&#xe0;" horiz-adv-x="1075" 
d="M905 414q-27 -81 -64 -147.5t-80 -123.5q-134 -167 -283 -167q-240 0 -301 292q-32 149 -2 295.5t118 290.5q91 147 226.5 221t313.5 74q35 0 77.5 -1t87 -3t88.5 -4.5t82 -5.5l-7 -328v2l5 -491q2 -57 5 -93.5t5 -50.5q4 -31 34 -31q85 0 286 290l5 -209
q-182 -248 -367 -248q-175 0 -214 181q-6 26 -8.5 71t-1.5 102zM899 947q-61 22 -112 32.5t-108 10.5q-79 0 -133.5 -53t-83.5 -156q-31 -128 -37.5 -249.5t13.5 -221.5q25 -127 87 -127q70 0 189 167q60 90 106.5 187.5t81.5 211.5zM409 658q35 -80 56 -151q7 -52 -4 -46
q-22 32 -69.5 122t-56.5 122q-3 37 74 -47z" />
    <glyph glyph-name="acircumflex" unicode="&#xe2;" horiz-adv-x="698" 
d="M905 414q-27 -81 -64 -147.5t-80 -123.5q-134 -167 -283 -167q-240 0 -301 292q-32 149 -2 295.5t118 290.5q91 147 226.5 221t313.5 74q35 0 77.5 -1t87 -3t88.5 -4.5t82 -5.5l-7 -328v2l5 -491q2 -57 5 -93.5t5 -50.5q4 -31 34 -31q85 0 286 290l5 -209
q-182 -248 -367 -248q-175 0 -214 181q-6 26 -8.5 71t-1.5 102zM899 947q-61 22 -112 32.5t-108 10.5q-79 0 -133.5 -53t-83.5 -156q-31 -128 -37.5 -249.5t13.5 -221.5q25 -127 87 -127q70 0 189 167q60 90 106.5 187.5t81.5 211.5zM877 665l-87 -53q-54 61 -90 159
q-41 -50 -119 -129q-3 -4 -21 -22l-101 -8q155 114 222 197l98 62q33 -113 98 -206z" />
    <glyph glyph-name="adieresis" unicode="&#xe4;" horiz-adv-x="1075" 
d="M905 414q-27 -81 -64 -147.5t-80 -123.5q-134 -167 -283 -167q-240 0 -301 292q-32 149 -2 295.5t118 290.5q91 147 226.5 221t313.5 74q35 0 77.5 -1t87 -3t88.5 -4.5t82 -5.5l-7 -328v2l5 -491q2 -57 5 -93.5t5 -50.5q4 -31 34 -31q85 0 286 290l5 -209
q-182 -248 -367 -248q-175 0 -214 181q-6 26 -8.5 71t-1.5 102zM899 947q-61 22 -112 32.5t-108 10.5q-79 0 -133.5 -53t-83.5 -156q-31 -128 -37.5 -249.5t13.5 -221.5q25 -127 87 -127q70 0 189 167q60 90 106.5 187.5t81.5 211.5zM801 923l-87 110l112 86l87 -116z
M1147 923l-89 112l114 84l85 -115z" />
    <glyph glyph-name="atilde" unicode="&#xe3;" horiz-adv-x="1075" 
d="M905 414q-27 -81 -64 -147.5t-80 -123.5q-134 -167 -283 -167q-240 0 -301 292q-32 149 -2 295.5t118 290.5q91 147 226.5 221t313.5 74q35 0 77.5 -1t87 -3t88.5 -4.5t82 -5.5l-7 -328v2l5 -491q2 -57 5 -93.5t5 -50.5q4 -31 34 -31q85 0 286 290l5 -209
q-182 -248 -367 -248q-175 0 -214 181q-6 26 -8.5 71t-1.5 102zM899 947q-61 22 -112 32.5t-108 10.5q-79 0 -133.5 -53t-83.5 -156q-31 -128 -37.5 -249.5t13.5 -221.5q25 -127 87 -127q70 0 189 167q60 90 106.5 187.5t81.5 211.5zM935 1632q-10 -156 -74.5 -234
t-171.5 -78q-52 0 -96 19t-86 59q-44 41 -76 62.5t-63 21.5q-49 0 -68.5 -45t-23.5 -121h-140q7 154 76 232.5t169 78.5q51 0 94 -19.5t86 -57.5q43 -39 77.5 -59.5t63.5 -20.5q47 0 68.5 45t24.5 117h140z" />
    <glyph glyph-name="aring" unicode="&#xe5;" horiz-adv-x="1075" 
d="M760 275v310q-67 -6 -169.5 -16.5t-165.5 -29.5q-75 -23 -124 -70.5t-49 -132.5q0 -96 54 -145t158 -49q89 0 161 38.5t135 94.5zM760 119q-23 -17 -61.5 -47t-74.5 -49q-50 -26 -96.5 -40t-130.5 -14q-69 0 -131 26t-109 73q-46 46 -72.5 113.5t-26.5 142.5
q0 116 49 197.5t155 129.5q94 43 222 59.5t276 24.5v36q0 66 -20 106.5t-56 62.5q-36 23 -88 30.5t-107 7.5q-52 0 -104.5 -10t-86.5 -19q-46 -12 -82 -25.5t-56 -21.5h-11v191q47 14 117.5 27t159.5 19q-90 36 -148 110t-58 172q0 128 89 214.5t217 86.5q129 0 217.5 -86
t88.5 -215q0 -99 -60.5 -176t-157.5 -111q86 -12 146.5 -39t99.5 -68q43 -46 65 -109.5t22 -153.5v-764h-187v119zM685 1420q0 73 -44 121.5t-115 48.5q-70 0 -114.5 -48.5t-44.5 -121.5q0 -74 45 -123t114 -49t114 49t45 123z" />
    <glyph glyph-name="ccedilla" unicode="&#xe7;" horiz-adv-x="805" 
d="M775 198l-11 -56q-148 -105 -319 -151l-37 -56q73 -21 73 -81q0 -51 -56.5 -94.5t-123.5 -43.5q-29 0 -69 7l55 76q35 -22 61 -22q64 0 64 51q0 55 -101 61l65 92q-231 24 -231 247q0 217 157 394t350 177q84 0 167 -37l-49 -184h-45l3 11q7 33 7 49q0 99 -136 99
q-124 0 -216.5 -142t-92.5 -332q0 -201 156 -201q117 0 329 136z" />
    <glyph glyph-name="eacute" unicode="&#xe9;" horiz-adv-x="1078" 
d="M1048 208q-143 -115 -272.5 -173.5t-243.5 -58.5q-78 0 -145 26.5t-130 82.5q-116 106 -152 275q-64 290 103 545q84 131 190.5 194.5t236.5 63.5q51 0 97 -17.5t82.5 -49.5t63 -77t38.5 -100q22 -103 -12 -191t-123 -160q-81 -66 -186.5 -103.5t-232.5 -40.5l2 -15
q29 -129 87 -194t151 -65q88 0 199 54t247 163v-159zM399 857q-35 -68 -49.5 -144.5t-6.5 -163.5q94 12 163.5 40.5t112.5 71t58.5 98t1.5 121.5q-26 121 -105 121q-54 0 -98 -35.5t-77 -108.5zM479 999q77 84 74 47q-9 -32 -56.5 -122t-69.5 -122q-11 -6 -4 46
q21 71 56 151z" />
    <glyph glyph-name="egrave" unicode="&#xe8;" horiz-adv-x="1078" 
d="M1048 208q-143 -115 -272.5 -173.5t-243.5 -58.5q-78 0 -145 26.5t-130 82.5q-116 106 -152 275q-64 290 103 545q84 131 190.5 194.5t236.5 63.5q51 0 97 -17.5t82.5 -49.5t63 -77t38.5 -100q22 -103 -12 -191t-123 -160q-81 -66 -186.5 -103.5t-232.5 -40.5l2 -15
q29 -129 87 -194t151 -65q88 0 199 54t247 163v-159zM399 857q-35 -68 -49.5 -144.5t-6.5 -163.5q94 12 163.5 40.5t112.5 71t58.5 98t1.5 121.5q-26 121 -105 121q-54 0 -98 -35.5t-77 -108.5zM544 1002q35 -80 56 -151q7 -52 -4 -46q-22 32 -69.5 122t-56.5 122
q-3 37 74 -47z" />
    <glyph glyph-name="ecircumflex" unicode="&#xea;" horiz-adv-x="1078" 
d="M1048 208q-143 -115 -272.5 -173.5t-243.5 -58.5q-78 0 -145 26.5t-130 82.5q-116 106 -152 275q-64 290 103 545q84 131 190.5 194.5t236.5 63.5q51 0 97 -17.5t82.5 -49.5t63 -77t38.5 -100q22 -103 -12 -191t-123 -160q-81 -66 -186.5 -103.5t-232.5 -40.5l2 -15
q29 -129 87 -194t151 -65q88 0 199 54t247 163v-159zM399 857q-35 -68 -49.5 -144.5t-6.5 -163.5q94 12 163.5 40.5t112.5 71t58.5 98t1.5 121.5q-26 121 -105 121q-54 0 -98 -35.5t-77 -108.5zM963 976l-87 -53q-54 61 -90 159q-41 -50 -119 -129q-3 -4 -21 -22l-101 -8
q155 114 222 197l98 62q33 -113 98 -206z" />
    <glyph glyph-name="edieresis" unicode="&#xeb;" horiz-adv-x="1078" 
d="M1048 208q-143 -115 -272.5 -173.5t-243.5 -58.5q-78 0 -145 26.5t-130 82.5q-116 106 -152 275q-64 290 103 545q84 131 190.5 194.5t236.5 63.5q51 0 97 -17.5t82.5 -49.5t63 -77t38.5 -100q22 -103 -12 -191t-123 -160q-81 -66 -186.5 -103.5t-232.5 -40.5l2 -15
q29 -129 87 -194t151 -65q88 0 199 54t247 163v-159zM399 857q-35 -68 -49.5 -144.5t-6.5 -163.5q94 12 163.5 40.5t112.5 71t58.5 98t1.5 121.5q-26 121 -105 121q-54 0 -98 -35.5t-77 -108.5zM364 972l-87 110l112 86l87 -116zM710 972l-89 112l114 84l85 -115z" />
    <glyph glyph-name="iacute" unicode="&#xed;" horiz-adv-x="468" 
d="M328 0h-188v1117h188v-1117zM133 999q77 84 74 47q-9 -32 -56.5 -122t-69.5 -122q-11 -6 -4 46q21 71 56 151z" />
    <glyph glyph-name="igrave" unicode="&#xec;" horiz-adv-x="468" 
d="M328 0h-188v1117h188v-1117zM281 1002q35 -80 56 -151q7 -52 -4 -46q-22 32 -69.5 122t-56.5 122q-3 37 74 -47z" />
    <glyph glyph-name="icircumflex" unicode="&#xee;" horiz-adv-x="468" 
d="M328 0h-188v1117h188v-1117zM521 1297h-151l-139 263l-138 -263h-147l174 379h227z" />
    <glyph glyph-name="idieresis" unicode="&#xef;" horiz-adv-x="468" 
d="M328 0h-188v1117h188v-1117zM506 1304h-189v195h189v-195zM151 1304h-189v195h189v-195z" />
    <glyph glyph-name="ntilde" unicode="&#xf1;" horiz-adv-x="1142" 
d="M292 -14l-1 836q0 56 -0.5 91t-4.5 51q-9 32 -36 32q-40 0 -111 -74t-171 -219l-6 211q87 124 179 185t187 61q173 0 209 -178q8 -28 9.5 -71.5t1.5 -101.5v-87q36 81 74 150.5t84 126.5q131 161 278 161q191 0 238 -210q13 -68 16 -149l3 -483q3 -58 4.5 -94t5.5 -50
q6 -31 37 -31q82 0 283 290l6 -209q-180 -248 -369 -248q-171 0 -211 181q-12 54 -22 173v485q0 110 -16 125.5t-30 15.5q-85 0 -176.5 -145.5t-204.5 -434.5v-375zM978 1632q-10 -156 -74.5 -234t-171.5 -78q-52 0 -96 19t-86 59q-44 41 -76 62.5t-63 21.5q-49 0 -68.5 -45
t-23.5 -121h-140q7 154 76 232.5t169 78.5q51 0 94 -19.5t86 -57.5q43 -39 77.5 -59.5t63.5 -20.5q47 0 68.5 45t24.5 117h140z" />
    <glyph glyph-name="oacute" unicode="&#xf3;" horiz-adv-x="1112" 
d="M520 -24q-142 0 -264 112q-117 111 -150 272q-66 299 107 548q87 128 196.5 190t243.5 62q151 0 274 -108q119 -110 153 -270q33 -158 7 -296t-111 -262q-88 -126 -202 -187t-254 -61zM604 122q66 0 112.5 44t79.5 129q35 93 39 197.5t-20 225.5q-32 152 -90 225t-143 73
q-125 0 -191 -179q-35 -94 -39.5 -199.5t20.5 -222.5q64 -293 232 -293zM459 999q77 84 74 47q-9 -32 -56.5 -122t-69.5 -122q-11 -6 -4 46q21 71 56 151z" />
    <glyph glyph-name="ograve" unicode="&#xf2;" horiz-adv-x="1112" 
d="M520 -24q-142 0 -264 112q-117 111 -150 272q-66 299 107 548q87 128 196.5 190t243.5 62q151 0 274 -108q119 -110 153 -270q33 -158 7 -296t-111 -262q-88 -126 -202 -187t-254 -61zM604 122q66 0 112.5 44t79.5 129q35 93 39 197.5t-20 225.5q-32 152 -90 225t-143 73
q-125 0 -191 -179q-35 -94 -39.5 -199.5t20.5 -222.5q64 -293 232 -293zM527 1002q35 -80 56 -151q7 -52 -4 -46q-22 32 -69.5 122t-56.5 122q-3 37 74 -47z" />
    <glyph glyph-name="ocircumflex" unicode="&#xf4;" horiz-adv-x="1112" 
d="M520 -24q-142 0 -264 112q-117 111 -150 272q-66 299 107 548q87 128 196.5 190t243.5 62q151 0 274 -108q119 -110 153 -270q33 -158 7 -296t-111 -262q-88 -126 -202 -187t-254 -61zM604 122q66 0 112.5 44t79.5 129q35 93 39 197.5t-20 225.5q-32 152 -90 225t-143 73
q-125 0 -191 -179q-35 -94 -39.5 -199.5t20.5 -222.5q64 -293 232 -293zM949 976l-87 -53q-54 61 -90 159q-41 -50 -119 -129q-3 -4 -21 -22l-101 -8q155 114 222 197l98 62q33 -113 98 -206z" />
    <glyph glyph-name="odieresis" unicode="&#xf6;" horiz-adv-x="1112" 
d="M520 -24q-142 0 -264 112q-117 111 -150 272q-66 299 107 548q87 128 196.5 190t243.5 62q151 0 274 -108q119 -110 153 -270q33 -158 7 -296t-111 -262q-88 -126 -202 -187t-254 -61zM604 122q66 0 112.5 44t79.5 129q35 93 39 197.5t-20 225.5q-32 152 -90 225t-143 73
q-125 0 -191 -179q-35 -94 -39.5 -199.5t20.5 -222.5q64 -293 232 -293zM830 923l-87 110l112 86l87 -116zM1176 923l-89 112l114 84l85 -115z" />
    <glyph glyph-name="otilde" unicode="&#xf5;" horiz-adv-x="1112" 
d="M520 -24q-142 0 -264 112q-117 111 -150 272q-66 299 107 548q87 128 196.5 190t243.5 62q151 0 274 -108q119 -110 153 -270q33 -158 7 -296t-111 -262q-88 -126 -202 -187t-254 -61zM604 122q66 0 112.5 44t79.5 129q35 93 39 197.5t-20 225.5q-32 152 -90 225t-143 73
q-125 0 -191 -179q-35 -94 -39.5 -199.5t20.5 -222.5q64 -293 232 -293zM959 1632q-10 -156 -74.5 -234t-171.5 -78q-52 0 -96 19t-86 59q-44 41 -76 62.5t-63 21.5q-49 0 -68.5 -45t-23.5 -121h-140q7 154 76 232.5t169 78.5q51 0 94 -19.5t86 -57.5q43 -39 77.5 -59.5
t63.5 -20.5q47 0 68.5 45t24.5 117h140z" />
    <glyph glyph-name="uacute" unicode="&#xfa;" horiz-adv-x="1142" 
d="M912 413q-160 -437 -407 -437q-97 0 -155 54.5t-81 162.5q-5 29 -9.5 64t-6.5 75l-8 490q0 55 -1 91t-4 51q-5 14 -13 23t-22 9q-41 0 -111.5 -74t-169.5 -219l-4 211q85 125 177 185.5t187 60.5q174 0 210 -178q14 -56 12 -173l7 -490l2 1q1 -32 2.5 -53.5t3.5 -33.5
q12 -50 36 -50q58 0 168 168q56 90 101 191t80 219l-1 375l271 16l-9 -345v2l7 -491q1 -113 8 -144q6 -31 33 -31q45 0 115.5 72t172.5 218l3 -209q-92 -126 -181 -187t-183 -61q-175 0 -216 181q-15 57 -12 173zM459 999q77 84 74 47q-9 -32 -56.5 -122t-69.5 -122
q-11 -6 -4 46q21 71 56 151z" />
    <glyph glyph-name="ugrave" unicode="&#xf9;" horiz-adv-x="1142" 
d="M912 413q-160 -437 -407 -437q-97 0 -155 54.5t-81 162.5q-5 29 -9.5 64t-6.5 75l-8 490q0 55 -1 91t-4 51q-5 14 -13 23t-22 9q-41 0 -111.5 -74t-169.5 -219l-4 211q85 125 177 185.5t187 60.5q174 0 210 -178q14 -56 12 -173l7 -490l2 1q1 -32 2.5 -53.5t3.5 -33.5
q12 -50 36 -50q58 0 168 168q56 90 101 191t80 219l-1 375l271 16l-9 -345v2l7 -491q1 -113 8 -144q6 -31 33 -31q45 0 115.5 72t172.5 218l3 -209q-92 -126 -181 -187t-183 -61q-175 0 -216 181q-15 57 -12 173zM546 1002q35 -80 56 -151q7 -52 -4 -46q-22 32 -69.5 122
t-56.5 122q-3 37 74 -47z" />
    <glyph glyph-name="ucircumflex" unicode="&#xfb;" horiz-adv-x="1142" 
d="M912 413q-160 -437 -407 -437q-97 0 -155 54.5t-81 162.5q-5 29 -9.5 64t-6.5 75l-8 490q0 55 -1 91t-4 51q-5 14 -13 23t-22 9q-41 0 -111.5 -74t-169.5 -219l-4 211q85 125 177 185.5t187 60.5q174 0 210 -178q14 -56 12 -173l7 -490l2 1q1 -32 2.5 -53.5t3.5 -33.5
q12 -50 36 -50q58 0 168 168q56 90 101 191t80 219l-1 375l271 16l-9 -345v2l7 -491q1 -113 8 -144q6 -31 33 -31q45 0 115.5 72t172.5 218l3 -209q-92 -126 -181 -187t-183 -61q-175 0 -216 181q-15 57 -12 173zM956 976l-87 -53q-54 61 -90 159q-41 -50 -119 -129
q-3 -4 -21 -22l-101 -8q155 114 222 197l98 62q33 -113 98 -206z" />
    <glyph glyph-name="udieresis" unicode="&#xfc;" horiz-adv-x="1142" 
d="M912 413q-160 -437 -407 -437q-97 0 -155 54.5t-81 162.5q-5 29 -9.5 64t-6.5 75l-8 490q0 55 -1 91t-4 51q-5 14 -13 23t-22 9q-41 0 -111.5 -74t-169.5 -219l-4 211q85 125 177 185.5t187 60.5q174 0 210 -178q14 -56 12 -173l7 -490l2 1q1 -32 2.5 -53.5t3.5 -33.5
q12 -50 36 -50q58 0 168 168q56 90 101 191t80 219l-1 375l271 16l-9 -345v2l7 -491q1 -113 8 -144q6 -31 33 -31q45 0 115.5 72t172.5 218l3 -209q-92 -126 -181 -187t-183 -61q-175 0 -216 181q-15 57 -12 173zM436 887l-87 110l112 86l87 -116zM782 887l-89 112l114 84
l85 -115z" />
    <glyph glyph-name="dagger" unicode="&#x2020;" 
d="M347 -231l220 853l-319 -30l49 108l279 -32l31 398l148 27l-134 -425l320 32l-46 -108l-283 30l-116 -835z" />
    <glyph glyph-name="degree" unicode="&#xb0;" horiz-adv-x="409" 
d="M395 844q-51 0 -87.5 36t-36.5 88q0 53 36.5 89t87.5 36q52 0 88 -36t36 -89q0 -52 -36 -88t-88 -36zM395 888q32 0 55.5 24t23.5 56t-23.5 56t-55.5 24t-56 -24t-24 -56t24 -56t56 -24z" />
    <glyph glyph-name="cent" unicode="&#xa2;" horiz-adv-x="693" 
d="M365 -18l39 194q-262 19 -262 179q0 104 100 179.5t250 87.5l35 177h45l-35 -177q100 -5 178 -21l-26 -130h-45q0 6 1 17q3 21 3 29q0 55 -120 61l-69 -349q108 0 202 51l-11 -51q-106 -53 -202 -53l-39 -194h-44zM415 232l69 346q-212 -31 -212 -195q0 -128 143 -151z
" />
    <glyph glyph-name="sterling" unicode="&#xa3;" horiz-adv-x="874" 
d="M17 0l92 88h13q107 0 150.5 48.5t74.5 206.5l9 48h-160l9 45h160l13 63q29 143 118.5 222t221.5 79q79 0 174 -35l-34 -179h-50l2 12q2 10 2 22q0 126 -133 126q-65 0 -94.5 -36t-49.5 -141l-27 -133h240l-9 -45h-240l-7 -32q-19 -94 -64.5 -151t-152.5 -120h205
q137 0 199 14.5t140 64.5l-11 -54q-73 -78 -142.5 -105.5t-195.5 -27.5l-28 1z" />
    <glyph glyph-name="section" unicode="&#xa7;" 
d="M107 -153l125 73q116 -98 249 -98q83 0 140.5 50.5t57.5 122.5q0 53 -33.5 85.5t-132.5 79.5l-73 33q-193 90 -193 216q0 119 162 243q-81 65 -81 163q0 123 112 200.5t287 77.5q87 0 206 -33l-36 -181h-44q4 25 4 37q0 123 -205 123q-92 0 -151.5 -52t-59.5 -134
q0 -55 25 -78.5t147 -88.5l61 -34q180 -99 180 -208q0 -125 -151 -244q98 -64 98 -160q0 -115 -116.5 -193t-287.5 -78q-153 0 -290 78zM667 229q80 90 80 165q0 76 -119 133l-70 35q-63 31 -113 63q-90 -80 -90 -169q0 -74 119 -130l97 -47q36 -16 96 -50z" />
    <glyph glyph-name="bullet" unicode="&#x2022;" horiz-adv-x="931" 
d="M817 662q0 -145 -103.5 -248t-248.5 -103t-248 103t-103 248t103 248t248 103t248.5 -103t103.5 -248z" />
    <glyph glyph-name="paragraph" unicode="&#xb6;" 
d="M365 -239l146 735q-270 46 -270 251q0 129 105.5 221t281.5 117l32 159h44l-31 -159l30 1q41 0 93 -6l32 164h45l-34 -173q52 -14 109 -35l-10 -48q-40 17 -108 36l-88 -438q52 17 127 57l-10 -57q-65 -37 -127 -56l-154 -769h-44l150 753q-87 -18 -128 -18l-147 -735
h-44zM695 568l92 463q-49 9 -83 9q-13 0 -40 -1l-97 -486q58 0 128 15z" />
    <glyph glyph-name="germandbls" unicode="&#xdf;" horiz-adv-x="1123" 
d="M1068 481q0 -218 -135 -361.5t-351 -143.5q-25 0 -62.5 3t-59.5 7v166h10q28 -8 59 -12.5t61 -4.5q77 0 131.5 27.5t87.5 74.5q35 51 49.5 111t14.5 141q0 169 -103 248.5t-304 79.5v157q152 0 233.5 57.5t81.5 190.5q0 33 -10 68.5t-34 63.5q-24 29 -62 46.5t-97 17.5
q-53 0 -96 -14.5t-81 -54.5q-36 -37 -56.5 -103t-20.5 -160v-1086h-188v1080q0 130 34 218t95 150q60 60 142.5 89t174.5 29q168 0 279.5 -85t111.5 -240q0 -112 -71 -201t-184 -121v-9q164 -37 257 -147t93 -282z" />
    <glyph glyph-name="registered" unicode="&#xae;" horiz-adv-x="897" 
d="M580 445q-132 0 -225.5 93.5t-93.5 225.5t93.5 226t225.5 94q134 0 227 -94t93 -226t-93.5 -225.5t-226.5 -93.5zM580 484q115 0 197.5 83t82.5 197t-82.5 197t-197.5 83q-114 0 -196.5 -83t-82.5 -197t82.5 -197t196.5 -83zM529 737l-28 -141h-107l9 43h53l55 276h-53
l8 44h132q153 0 153 -84q0 -75 -101 -125l35 -111h62l-9 -43h-97l-50 141h-62zM538 782h36q123 0 123 84q0 49 -90 49h-43z" />
    <glyph glyph-name="copyright" unicode="&#xa9;" horiz-adv-x="1244" 
d="M725 -27q-230 0 -394.5 164t-164.5 396t164.5 396t394.5 164q233 0 397 -164t164 -396t-164 -396t-397 -164zM725 18q214 0 365 151t151 364t-151 364t-365 151q-212 0 -363 -151t-151 -364t151 -364t363 -151zM890 246q-105 -33 -186 -33q-124 0 -196 66.5t-72 182.5
q0 163 105 272.5t264 109.5q91 0 198 -30l-36 -139l-52 9l8 82q-69 32 -131 32q-104 0 -176 -98t-72 -238q0 -191 178 -191q101 0 180 36z" />
    <glyph glyph-name="trademark" unicode="&#x2122;" horiz-adv-x="1333" 
d="M440 1021h-133l-19 -98h-63l29 143h497l-28 -143h-62l18 98h-133l-90 -452h98l-9 -45h-302l10 45h97zM1011 569l-69 387l-85 -432h-169l9 45h97l90 452h-97l9 45h240l56 -319l173 319h216l-8 -45h-98l-90 -452h98l-10 -45h-195l92 461l-229 -416h-30z" />
    <glyph glyph-name="acute" unicode="&#xb4;" horiz-adv-x="256" 
d="M118 999q77 84 74 47q-9 -32 -56.5 -122t-69.5 -122q-11 -6 -4 46q21 71 56 151z" />
    <glyph glyph-name="dieresis" unicode="&#xa8;" horiz-adv-x="862" 
d="M495 923l-87 110l112 86l87 -116zM841 923l-89 112l114 84l85 -115z" />
    <glyph glyph-name="AE" unicode="&#xc6;" horiz-adv-x="1870" 
d="M1802 0h-912v557h-505l-217 -557h-207l603 1489h1238v-176h-716v-408h666v-176h-666v-553h716v-176zM890 723v601h-194l-245 -601h439z" />
    <glyph glyph-name="Oslash" unicode="&#xd8;" horiz-adv-x="1449" 
d="M1383 744q0 -368 -180 -571.5t-479 -203.5q-110 0 -204.5 29t-171.5 82l-132 -196h-148l189 278q-90 99 -140.5 245t-50.5 337q0 368 180.5 572t477.5 204q114 0 203.5 -27.5t169.5 -82.5l115 171h148l-171 -251q91 -100 142.5 -243.5t51.5 -342.5zM995 1260
q-52 44 -120 66.5t-150 22.5q-208 0 -331.5 -154t-123.5 -451q0 -135 26 -239.5t73 -180.5zM1179 744q0 138 -27.5 246t-73.5 179l-628 -937q57 -46 120.5 -69t154.5 -23q206 0 330 155.5t124 448.5z" />
    <glyph glyph-name="plusminus" unicode="&#xb1;" 
d="M76 0l16 80h781l-15 -80h-782zM469 213l56 280h-351l15 80h352l55 279h80l-55 -279h350l-15 -80h-351l-56 -280h-80z" />
    <glyph glyph-name="yen" unicode="&#xa5;" horiz-adv-x="965" 
d="M156 0l91 99q22 -2 32 -2q136 0 198 160h-205l8 44h209q6 45 10 108h-198l9 44h189v17q0 97 -35.5 161t-88.5 64t-125 -57t-111 -129l-33 25q66 116 162.5 190.5t183.5 74.5q160 0 160 -281l-1 -46q125 327 360 327q74 0 129 -34l-84 -112q-49 31 -101 31
q-173 0 -264 -231h184l-9 -44h-183l-9 -40q-7 -34 -25 -68h196l-9 -44h-211q-66 -119 -196 -166l235 -14l-90 -95z" />
    <glyph glyph-name="mu1" unicode="&#xb5;" horiz-adv-x="992" 
d="M100 -302l55 226l115 576q12 60 12 111q0 82 -76 171l162 8q59 -50 59 -167q0 -47 -18 -142l-54 -268q-8 -37 -8 -52q0 -55 44 -55q55 0 162.5 123t199.5 290l52 263l153 8l-53 -221l-71 -356q-16 -81 -16 -107q0 -53 43 -53q70 0 214 165l-13 -67q-157 -169 -283 -169
q-104 0 -104 109q0 37 17 122l35 178h-10q-200 -391 -405 -391l-57 -284z" />
    <glyph glyph-name="ordfeminine" unicode="&#xaa;" horiz-adv-x="1010" 
d="M874 566h-166v91q-19 -15 -51 -38.5t-63 -37.5q-41 -19 -80.5 -29.5t-109.5 -10.5q-124 0 -207 83.5t-83 214.5q0 104 43 169.5t123 103.5q75 36 189 51t239 21v19q0 52 -16.5 84t-48.5 50q-29 17 -72 22.5t-89 5.5q-78 0 -158.5 -23.5t-119.5 -37.5h-15v170
q44 13 131.5 29t162.5 16q192 0 291.5 -76.5t99.5 -248.5v-628zM708 802v243q-65 -4 -151 -12t-137 -23q-60 -17 -97 -55.5t-37 -105.5q0 -75 44 -114t131 -39q76 0 136.5 33t110.5 73z" />
    <glyph glyph-name="ordmasculine" unicode="&#xba;" horiz-adv-x="1010" 
d="M926 1030q0 -234 -117 -362t-303 -128q-193 0 -307 131.5t-114 358.5q0 233 117 361.5t304 128.5t303.5 -127t116.5 -363zM746 1030q0 173 -64.5 256.5t-175.5 83.5t-176 -82.5t-65 -257.5q0 -169 64 -254.5t177 -85.5q111 0 175.5 85.5t64.5 254.5z" />
    <glyph glyph-name="ae" unicode="&#xe6;" horiz-adv-x="1802" 
d="M817 298q-19 54 -29 119.5t-10 140.5q-95 -3 -189.5 -8.5t-169.5 -26.5q-74 -20 -121 -66t-47 -127q0 -95 56 -141.5t167 -46.5q91 0 184 44t159 112zM1340 138q65 0 125.5 14.5t106.5 35.5q51 23 86 44.5t58 40.5h11v-205l-82.5 -32.5t-88.5 -30.5q-55 -15 -99.5 -23
t-114.5 -8q-161 0 -276 52t-189 155q-21 -19 -64.5 -59.5t-91.5 -68.5q-65 -38 -134.5 -60t-179.5 -22q-146 0 -247.5 97t-101.5 249q0 129 53 204t150 117q92 39 231.5 52t293.5 16v58q0 65 -21.5 108t-60.5 67q-36 22 -87.5 31.5t-116.5 9.5q-81 0 -176.5 -26.5
t-152.5 -51.5h-15v191q49 14 151.5 33.5t193.5 19.5q160 0 260 -48t153 -136q66 81 165 133.5t217 52.5q224 0 338.5 -134.5t114.5 -372.5v-82h-788q0 -114 30 -195.5t83 -132.5q53 -50 120 -71.5t146 -21.5zM1567 703q-5 59 -20.5 112.5t-47.5 92.5q-31 38 -85 61.5
t-127 23.5q-78 0 -129.5 -21.5t-94.5 -62.5q-40 -38 -64.5 -92.5t-34.5 -113.5h603z" />
    <glyph glyph-name="oslash" unicode="&#xf8;" horiz-adv-x="1112" 
d="M1055 558q0 -282 -136 -435t-362 -153q-79 0 -145 20.5t-124 56.5l-123 -194h-124l168 261q-72 76 -112 187t-40 257q0 280 137.5 434.5t362.5 154.5q75 0 142 -20t124 -57l108 170h125l-152 -236q71 -77 111 -186t40 -260zM735 932q-34 26 -78 40t-100 14
q-147 0 -228 -107.5t-81 -320.5q0 -97 14.5 -169.5t43.5 -126.5zM864 558q0 99 -14.5 173t-42.5 125l-429 -669q38 -29 79.5 -42.5t99.5 -13.5q145 0 226 106.5t81 320.5z" />
    <glyph glyph-name="questiondown" unicode="&#xbf;" horiz-adv-x="970" 
d="M632 1278h-204v211h204v-211zM861 40q-79 -30 -167 -50t-195 -20q-205 0 -323 104.5t-118 275.5q0 94 30 168t89 141q53 59 122.5 106.5t144.5 95.5v228h179v-305q-71 -43 -131.5 -81t-115.5 -89q-51 -48 -82.5 -109t-31.5 -140q0 -113 71 -168.5t185 -55.5
q99 0 191 34.5t141 68.5h11v-204z" />
    <glyph glyph-name="exclamdown" unicode="&#xa1;" horiz-adv-x="680" 
d="M442 1278h-204v211h204v-211zM452 0h-224l28 1079h166z" />
    <glyph glyph-name="logicalnot" unicode="&#xac;" 
d="M177 510l16 80h782l-69 -342h-92l52 262h-689z" />
    <glyph glyph-name="florin" unicode="&#x192;" horiz-adv-x="679" 
d="M158 -231l52 213l76 382h-178l9 45h177l4 18q32 159 165 265.5t298 106.5q57 0 99 -15l-96 -106q-52 51 -121 51q-143 0 -186 -217l-21 -103h187l-9 -45h-187l-114 -577z" />
    <glyph glyph-name="ellipsis" unicode="&#x2026;" horiz-adv-x="1474" 
d="M178 0l28 142h142l-29 -142h-141zM667 0l28 142h142l-29 -142h-141zM1155 0l28 142h143l-29 -142h-142z" />
    <glyph glyph-name="Agrave" unicode="&#xc0;" horiz-adv-x="1228" 
d="M162 455l53 -11q59 -262 218 -285q14 -2 29 -3t29 -1q63 0 114.5 23t89.5 71q53 60 105 166.5t110 262.5l255 701q-39 3 -74 5.5t-64 2.5q-97 0 -166.5 -25.5t-113.5 -73.5q-22 -25 -30 -57.5t1 -71.5q6 -29 27.5 -71t56.5 -99l-400 -111q-11 121 6.5 215.5t67.5 162.5
t154.5 126t255.5 105t304 71.5t295 23.5l294 -1054v2q169 -473 450 -444l25 -60q-71 -23 -137 -36t-129 -13q-83 0 -159.5 27t-142 85t-117.5 148.5t-87 217.5h-497q-50 -133 -105 -228t-114 -149q-125 -115 -329 -115q-192 0 -389 146zM1033 593h407q-26 86 -48.5 159.5
t-44 145t-44 147t-47.5 164.5zM628 1375q35 -80 56 -151q7 -52 -4 -46q-22 32 -69.5 122t-56.5 122q-3 37 74 -47z" />
    <glyph glyph-name="Atilde" unicode="&#xc3;" horiz-adv-x="1228" 
d="M162 455l53 -11q59 -262 218 -285q14 -2 29 -3t29 -1q63 0 114.5 23t89.5 71q53 60 105 166.5t110 262.5l255 701q-39 3 -74 5.5t-64 2.5q-97 0 -166.5 -25.5t-113.5 -73.5q-22 -25 -30 -57.5t1 -71.5q6 -29 27.5 -71t56.5 -99l-400 -111q-11 121 6.5 215.5t67.5 162.5
t154.5 126t255.5 105t304 71.5t295 23.5l294 -1054v2q169 -473 450 -444l25 -60q-71 -23 -137 -36t-129 -13q-83 0 -159.5 27t-142 85t-117.5 148.5t-87 217.5h-497q-50 -133 -105 -228t-114 -149q-125 -115 -329 -115q-192 0 -389 146zM1033 593h407q-26 86 -48.5 159.5
t-44 145t-44 147t-47.5 164.5zM1010 1965q-10 -156 -74.5 -234t-171.5 -78q-52 0 -96 19t-86 59q-44 41 -76 62.5t-63 21.5q-49 0 -68.5 -45t-23.5 -121h-140q7 154 76 232.5t169 78.5q51 0 94 -19.5t86 -57.5q43 -39 77.5 -59.5t63.5 -20.5q47 0 68.5 45t24.5 117h140z" />
    <glyph glyph-name="Otilde" unicode="&#xd5;" horiz-adv-x="1449" 
d="M787 -37q-262 0 -447 161q-91 81 -153 189t-91 247q-87 405 128 709q212 311 585 311q128 0 239 -41t204 -120q93 -81 152 -187.5t89 -242.5q43 -213 15 -392.5t-132 -331.5q-210 -302 -589 -302zM800 94q123 0 211.5 63.5t151.5 194.5q61 136 73.5 295t-28.5 349
q-50 229 -150 342.5t-255 113.5q-121 0 -213.5 -64t-154.5 -195q-63 -131 -73.5 -288t27.5 -345q103 -466 411 -466zM1110 1985q-10 -156 -74.5 -234t-171.5 -78q-52 0 -96 19t-86 59q-44 41 -76 62.5t-63 21.5q-49 0 -68.5 -45t-23.5 -121h-140q7 154 76 232.5t169 78.5
q51 0 94 -19.5t86 -57.5q43 -39 77.5 -59.5t63.5 -20.5q47 0 68.5 45t24.5 117h140z" />
    <glyph glyph-name="OE" unicode="&#x152;" horiz-adv-x="1477" 
d="M816 0l15 70q-120 -97 -282 -97q-178 0 -280 108t-102 297q0 283 191 499t441 216q132 0 218 -86l12 59h564l-64 -204h-45q6 29 6 51q0 56 -65.5 77.5t-237.5 21.5h-22l-83 -426h320l-73 -74q-164 21 -222 21h-36l-59 -315q-10 -51 -10 -62q0 -76 226 -76q120 0 225 80
l-11 -57q-124 -126 -239 -126q-20 0 -42 2zM888 361l73 362q13 63 13 118q0 92 -57.5 149.5t-147.5 57.5q-165 0 -302.5 -204t-137.5 -449q0 -177 67.5 -277.5t188.5 -100.5q233 0 303 344z" />
    <glyph glyph-name="oe" unicode="&#x153;" horiz-adv-x="1350" 
d="M706 145q-171 -163 -336 -163q-97 0 -161 73t-64 182q0 211 157.5 386.5t347.5 175.5q144 0 209 -169q166 169 324 169q63 0 103.5 -41t40.5 -107q0 -143 -134.5 -237t-351.5 -103l-1 -33q0 -212 158 -212q115 0 329 134l-11 -54q-233 -164 -399 -164q-159 0 -211 163z
M431 35q113 0 205 143.5t92 320.5q0 108 -39 173t-105 65q-112 0 -202 -143t-90 -322q0 -237 139 -237zM844 355q160 13 253.5 83.5t93.5 181.5q0 113 -81 113q-86 0 -168.5 -117t-97.5 -261z" />
    <glyph glyph-name="endash" unicode="&#x2013;" horiz-adv-x="434" 
d="M434 154h-434v80h434v-80z" />
    <glyph glyph-name="emdash" unicode="&#x2014;" horiz-adv-x="1862" 
d="M1866 572h-1870v160h1870v-160z" />
    <glyph glyph-name="quotedblleft" unicode="&#x201c;" horiz-adv-x="796" 
d="M287 1143q-42 -71 -63 -127t-21 -98l45 -43q43 -43 43 -64q0 -19 -6 -38.5t-16.5 -35.5t-26 -26t-33.5 -10q-69 0 -69 110q0 69 77 256q81 202 127 193zM527 1143q-42 -71 -63 -127t-21 -98l45 -43q43 -43 43 -64q0 -19 -6 -38.5t-16.5 -35.5t-26 -26t-33.5 -10
q-69 0 -69 110q0 69 77 256q81 202 127 193z" />
    <glyph glyph-name="quotedblright" unicode="&#x201d;" horiz-adv-x="756" 
d="M437 819q42 71 63 127t21 98l-45 43q-43 43 -43 64q0 19 6 38.5t16.5 35.5t26 26t33.5 10q69 0 69 -110q0 -69 -77 -256q-81 -202 -127 -193zM197 819q42 71 63 127t21 98l-45 43q-43 43 -43 64q0 19 6 38.5t16.5 35.5t26 26t33.5 10q69 0 69 -110q0 -69 -77 -256
q-81 -202 -127 -193z" />
    <glyph glyph-name="divide" unicode="&#xf7;" horiz-adv-x="1093" 
d="M624 674h-158v181h158v-181zM933 383h-776v106h776v-106zM624 17h-158v181h158v-181z" />
    <glyph glyph-name="ydieresis" unicode="&#xff;" horiz-adv-x="1020" 
d="M480 -424q63 -32 120 -49.5t111 -17.5q121 0 172 89q26 48 41.5 133t19.5 213l12 437q-25 -65 -49 -118.5t-51 -100.5l-1 3q-93 -165 -176 -165q-48 0 -88.5 23.5t-70.5 71.5q-29 42 -61.5 116t-70.5 180l-126 390q-64 187 -103 187q-43 0 -146 -177l-49 24l-3 121
q60 114 128.5 169t143.5 55q101 0 161 -86q27 -38 59.5 -115.5t73.5 -197.5l112 -330l-1 2q25 -76 45.5 -114.5t32.5 -38.5q23 0 51 41t62 118q10 17 44.5 106.5t96.5 255.5q1 81 4.5 169t4.5 166l273 16l-26 -351q-5 -174 -11 -351.5t-13 -352.5q-8 -180 -52 -321.5
t-122.5 -238.5t-190.5 -148t-257 -51q-110 0 -245 48zM795 923l-87 110l112 86l87 -116zM1141 923l-89 112l114 84l85 -115z" />
    <glyph glyph-name="Ydieresis" unicode="&#x178;" horiz-adv-x="1180" 
d="M583 -121q81 -79 160.5 -118t154.5 -39q227 0 244 468l6 159q-72 -146 -149 -219.5t-153 -73.5q-165 0 -256 319l-218 746l1 -1q-81 270 -161 270q-65 0 -215 -168l-6 177q70 90 135.5 135.5t128.5 45.5q71 0 133.5 -37.5t109.5 -103.5q45 -63 89 -168t86 -247v1
l159 -549q24 -82 45 -125t38 -43q18 0 46 27.5t63 78.5q38 55 74 123t65 143l33 859l293 23l-28 -356v1l-30 -786q-30 -839 -598 -839q-91 0 -189.5 27.5t-207.5 86.5zM865 1296l-87 110l112 86l87 -116zM1211 1296l-89 112l114 84l85 -115z" />
    <glyph glyph-name="Euro" unicode="&#x20ac;" horiz-adv-x="812" 
d="M210 464q42 132 161.5 233.5t302.5 101.5q99 0 211 -30l-40 -145h-50q6 29 6 41q0 36 -44 61t-108 25q-204 0 -300 -287h337l-9 -44h-340q-2 -2 -5 -16l-7 -39v-5h340l-9 -45h-337v-26q0 -111 51 -173.5t142 -62.5q124 0 253 82l-10 -63q-151 -90 -296 -90
q-135 0 -209.5 77t-74.5 215v41h-64l9 45h62v4q7 37 12 56h-76l9 44h83z" />
    <glyph glyph-name="guilsinglleft" unicode="&#x2039;" horiz-adv-x="560" 
d="M375 71q-71 166 -208 320q191 116 270 262l150 58q-51 -122 -272 -270q108 -131 184 -303z" />
    <glyph glyph-name="guilsinglright" unicode="&#x203a;" horiz-adv-x="560" 
d="M339 711q71 -166 207 -320q-190 -116 -270 -263l-148 -57q50 122 272 270q-107 129 -185 302z" />
    <glyph glyph-name="daggerdbl" unicode="&#x2021;" 
d="M349 -231l132 416l-320 -31l50 107l279 -32l77 387l-320 -30l50 107l278 -32l33 405l150 27l-138 -432l320 32l-51 -107l-278 30l-76 -387l320 32l-51 -107l-279 31l-26 -398z" />
    <glyph glyph-name="quotesinglbase" unicode="&#x201a;" horiz-adv-x="418" 
d="M103 128l144 103l106 -141q-8 -146 -90.5 -224.5t-226.5 -78.5l40 45q113 10 135 150z" />
    <glyph glyph-name="quotedblbase" unicode="&#x201e;" horiz-adv-x="684" 
d="M91 92l113 86l88 -114q-22 -277 -261 -277l29 45q106 20 119 152zM401 92l115 86l86 -114q-21 -277 -261 -277l31 45q104 20 118 152z" />
    <glyph glyph-name="perthousand" unicode="&#x2030;" horiz-adv-x="1571" 
d="M385 533q-81 0 -130.5 51.5t-49.5 137.5q0 143 81.5 243.5t196.5 100.5q84 0 134.5 -51.5t50.5 -137.5q0 -144 -82.5 -244t-200.5 -100zM311 715q0 -137 87 -137q65 0 119 93.5t54 209.5q0 141 -88 141q-67 0 -119.5 -94t-52.5 -213zM850 0q-81 0 -130.5 51.5
t-49.5 137.5q0 142 81 243t196 101q84 0 134.5 -51.5t50.5 -137.5q0 -144 -82.5 -244t-199.5 -100zM776 182q0 -138 86 -138q67 0 120 94t53 210q0 142 -87 142q-68 0 -120 -94.5t-52 -213.5zM131 -27l980 1120h95l-981 -1120h-94zM1376 0q-82 0 -131.5 51.5t-49.5 137.5
q0 142 81.5 243t196.5 101q84 0 134.5 -51.5t50.5 -137.5q0 -144 -82.5 -244t-199.5 -100zM1301 183q0 -139 88 -139q64 0 118 94t54 209q0 143 -88 143q-67 0 -119.5 -94.5t-52.5 -212.5z" />
    <glyph glyph-name="Acircumflex" unicode="&#xc2;" horiz-adv-x="1228" 
d="M162 455l53 -11q59 -262 218 -285q14 -2 29 -3t29 -1q63 0 114.5 23t89.5 71q53 60 105 166.5t110 262.5l255 701q-39 3 -74 5.5t-64 2.5q-97 0 -166.5 -25.5t-113.5 -73.5q-22 -25 -30 -57.5t1 -71.5q6 -29 27.5 -71t56.5 -99l-400 -111q-11 121 6.5 215.5t67.5 162.5
t154.5 126t255.5 105t304 71.5t295 23.5l294 -1054v2q169 -473 450 -444l25 -60q-71 -23 -137 -36t-129 -13q-83 0 -159.5 27t-142 85t-117.5 148.5t-87 217.5h-497q-50 -133 -105 -228t-114 -149q-125 -115 -329 -115q-192 0 -389 146zM1033 593h407q-26 86 -48.5 159.5
t-44 145t-44 147t-47.5 164.5zM988 1329l-87 -53q-54 61 -90 159q-41 -50 -119 -129q-3 -4 -21 -22l-101 -8q155 114 222 197l98 62q33 -113 98 -206z" />
    <glyph glyph-name="Ecircumflex" unicode="&#xca;" horiz-adv-x="1149" 
d="M153 2l160 206h30q71 0 114.5 14t63.5 41q20 26 29.5 91.5t6.5 169.5l-11 876q-84 -4 -147.5 -29.5t-108.5 -71.5q-93 -100 -58 -266l10 -43l-234 -126q-21 172 14 299t128.5 211t247 125t369.5 41h629l-35 -343h-122q-2 38 -3.5 62t-3.5 40q-13 51 -87 76
q-45 14 -126 21.5t-199 7.5h-3l7 -531h482l-131 -163q-123 14 -204 22t-123 8h-23l4 -86q-2 -92 -14 -165.5t-37 -129.5q-21 -43 -52 -85t-79 -84l398 -16q23 0 52.5 -2t51.5 -2q151 0 315 158l3 -169q-152 -196 -319 -196l-49 2zM1009 1349l-87 -53q-54 61 -90 159
q-41 -50 -119 -129q-3 -4 -21 -22l-101 -8q155 114 222 197l98 62q33 -113 98 -206z" />
    <glyph glyph-name="Aacute" unicode="&#xc1;" horiz-adv-x="1228" 
d="M162 455l53 -11q59 -262 218 -285q14 -2 29 -3t29 -1q63 0 114.5 23t89.5 71q53 60 105 166.5t110 262.5l255 701q-39 3 -74 5.5t-64 2.5q-97 0 -166.5 -25.5t-113.5 -73.5q-22 -25 -30 -57.5t1 -71.5q6 -29 27.5 -71t56.5 -99l-400 -111q-11 121 6.5 215.5t67.5 162.5
t154.5 126t255.5 105t304 71.5t295 23.5l294 -1054v2q169 -473 450 -444l25 -60q-71 -23 -137 -36t-129 -13q-83 0 -159.5 27t-142 85t-117.5 148.5t-87 217.5h-497q-50 -133 -105 -228t-114 -149q-125 -115 -329 -115q-192 0 -389 146zM1033 593h407q-26 86 -48.5 159.5
t-44 145t-44 147t-47.5 164.5zM1545 1136q77 84 74 47q-9 -32 -56.5 -122t-69.5 -122q-11 -6 -4 46q21 71 56 151z" />
    <glyph glyph-name="Edieresis" unicode="&#xcb;" horiz-adv-x="1149" 
d="M153 2l160 206h30q71 0 114.5 14t63.5 41q20 26 29.5 91.5t6.5 169.5l-11 876q-84 -4 -147.5 -29.5t-108.5 -71.5q-93 -100 -58 -266l10 -43l-234 -126q-21 172 14 299t128.5 211t247 125t369.5 41h629l-35 -343h-122q-2 38 -3.5 62t-3.5 40q-13 51 -87 76
q-45 14 -126 21.5t-199 7.5h-3l7 -531h482l-131 -163q-123 14 -204 22t-123 8h-23l4 -86q-2 -92 -14 -165.5t-37 -129.5q-21 -43 -52 -85t-79 -84l398 -16q23 0 52.5 -2t51.5 -2q151 0 315 158l3 -169q-152 -196 -319 -196l-49 2zM931 1296l-87 110l112 86l87 -116z
M1277 1296l-89 112l114 84l85 -115z" />
    <glyph glyph-name="Egrave" unicode="&#xc8;" horiz-adv-x="1149" 
d="M153 2l160 206h30q71 0 114.5 14t63.5 41q20 26 29.5 91.5t6.5 169.5l-11 876q-84 -4 -147.5 -29.5t-108.5 -71.5q-93 -100 -58 -266l10 -43l-234 -126q-21 172 14 299t128.5 211t247 125t369.5 41h629l-35 -343h-122q-2 38 -3.5 62t-3.5 40q-13 51 -87 76
q-45 14 -126 21.5t-199 7.5h-3l7 -531h482l-131 -163q-123 14 -204 22t-123 8h-23l4 -86q-2 -92 -14 -165.5t-37 -129.5q-21 -43 -52 -85t-79 -84l398 -16q23 0 52.5 -2t51.5 -2q151 0 315 158l3 -169q-152 -196 -319 -196l-49 2zM613 1375q35 -80 56 -151q7 -52 -4 -46
q-22 32 -69.5 122t-56.5 122q-3 37 74 -47z" />
    <glyph glyph-name="Iacute" unicode="&#xcd;" horiz-adv-x="764" 
d="M-182 2l161 206h80q99 0 130 61q17 36 24 105.5t6 178.5l-1 778h-303l160 209h735l-168 -209h-150l5 -684q-2 -144 -44.5 -258t-134.5 -199q46 -1 95 -2.5t97.5 -2t94.5 -1t82 -1.5l-162 -207zM248 1372q77 84 74 47q-9 -32 -56.5 -122t-69.5 -122q-11 -6 -4 46
q21 71 56 151z" />
    <glyph glyph-name="Icircumflex" unicode="&#xce;" horiz-adv-x="764" 
d="M-182 2l161 206h80q99 0 130 61q17 36 24 105.5t6 178.5l-1 778h-303l160 209h735l-168 -209h-150l5 -684q-2 -144 -44.5 -258t-134.5 -199q46 -1 95 -2.5t97.5 -2t94.5 -1t82 -1.5l-162 -207zM775 1349l-87 -53q-54 61 -90 159q-41 -50 -119 -129q-3 -4 -21 -22l-101 -8
q155 114 222 197l98 62q33 -113 98 -206z" />
    <glyph glyph-name="Idieresis" unicode="&#xcf;" horiz-adv-x="764" 
d="M-182 2l161 206h80q99 0 130 61q17 36 24 105.5t6 178.5l-1 778h-303l160 209h735l-168 -209h-150l5 -684q-2 -144 -44.5 -258t-134.5 -199q46 -1 95 -2.5t97.5 -2t94.5 -1t82 -1.5l-162 -207zM656 1296l-87 110l112 86l87 -116zM1002 1296l-89 112l114 84l85 -115z" />
    <glyph glyph-name="Igrave" unicode="&#xcc;" horiz-adv-x="764" 
d="M-182 2l161 206h80q99 0 130 61q17 36 24 105.5t6 178.5l-1 778h-303l160 209h735l-168 -209h-150l5 -684q-2 -144 -44.5 -258t-134.5 -199q46 -1 95 -2.5t97.5 -2t94.5 -1t82 -1.5l-162 -207zM389 1375q35 -80 56 -151q7 -52 -4 -46q-22 32 -69.5 122t-56.5 122
q-3 37 74 -47z" />
    <glyph glyph-name="Oacute" unicode="&#xd3;" horiz-adv-x="1449" 
d="M787 -37q-262 0 -447 161q-91 81 -153 189t-91 247q-87 405 128 709q212 311 585 311q128 0 239 -41t204 -120q93 -81 152 -187.5t89 -242.5q43 -213 15 -392.5t-132 -331.5q-210 -302 -589 -302zM800 94q123 0 211.5 63.5t151.5 194.5q61 136 73.5 295t-28.5 349
q-50 229 -150 342.5t-255 113.5q-121 0 -213.5 -64t-154.5 -195q-63 -131 -73.5 -288t27.5 -345q103 -466 411 -466zM592 1372q77 84 74 47q-9 -32 -56.5 -122t-69.5 -122q-11 -6 -4 46q21 71 56 151z" />
    <glyph glyph-name="Ocircumflex" unicode="&#xd4;" horiz-adv-x="1449" 
d="M787 -37q-262 0 -447 161q-91 81 -153 189t-91 247q-87 405 128 709q212 311 585 311q128 0 239 -41t204 -120q93 -81 152 -187.5t89 -242.5q43 -213 15 -392.5t-132 -331.5q-210 -302 -589 -302zM800 94q123 0 211.5 63.5t151.5 194.5q61 136 73.5 295t-28.5 349
q-50 229 -150 342.5t-255 113.5q-121 0 -213.5 -64t-154.5 -195q-63 -131 -73.5 -288t27.5 -345q103 -466 411 -466zM1103 1349l-87 -53q-54 61 -90 159q-41 -50 -119 -129q-3 -4 -21 -22l-101 -8q155 114 222 197l98 62q33 -113 98 -206z" />
    <glyph glyph-name="Ograve" unicode="&#xd2;" horiz-adv-x="1449" 
d="M787 -37q-262 0 -447 161q-91 81 -153 189t-91 247q-87 405 128 709q212 311 585 311q128 0 239 -41t204 -120q93 -81 152 -187.5t89 -242.5q43 -213 15 -392.5t-132 -331.5q-210 -302 -589 -302zM800 94q123 0 211.5 63.5t151.5 194.5q61 136 73.5 295t-28.5 349
q-50 229 -150 342.5t-255 113.5q-121 0 -213.5 -64t-154.5 -195q-63 -131 -73.5 -288t27.5 -345q103 -466 411 -466zM710 1375q35 -80 56 -151q7 -52 -4 -46q-22 32 -69.5 122t-56.5 122q-3 37 74 -47z" />
    <glyph glyph-name="Uacute" unicode="&#xda;" horiz-adv-x="1343" 
d="M1441 -45l-3 228q-73 -109 -167.5 -164.5t-203.5 -55.5q-97 0 -179.5 34t-151.5 100q-144 132 -189 352q-14 66 -22 173.5t-8 250.5q-1 131 3 264.5t16 251.5q-13 1 -19 2.5t-11 1.5q-148 0 -231 -107q-37 -56 -47.5 -127.5t9.5 -162.5l-234 -126q-46 335 129.5 502.5
t574.5 167.5h115q-20 -157 -26 -316t-8 -320q0 -72 2.5 -139t6.5 -125.5t9.5 -106t13.5 -81.5q15 -74 42 -133t63.5 -99.5t81.5 -62t95 -21.5q54 0 103.5 25.5t92 73.5t77 116.5t58.5 154.5l-15 1030l286 35l-7 -364v1q4 -180 6 -359t5 -356q0 -100 4.5 -162t9.5 -89
q9 -38 37 -57t79 -19q25 0 61.5 3.5t93.5 14.5l5 -128zM585 1372q77 84 74 47q-9 -32 -56.5 -122t-69.5 -122q-11 -6 -4 46q21 71 56 151z" />
    <glyph glyph-name="Ucircumflex" unicode="&#xdb;" horiz-adv-x="1343" 
d="M1441 -45l-3 228q-73 -109 -167.5 -164.5t-203.5 -55.5q-97 0 -179.5 34t-151.5 100q-144 132 -189 352q-14 66 -22 173.5t-8 250.5q-1 131 3 264.5t16 251.5q-13 1 -19 2.5t-11 1.5q-148 0 -231 -107q-37 -56 -47.5 -127.5t9.5 -162.5l-234 -126q-46 335 129.5 502.5
t574.5 167.5h115q-20 -157 -26 -316t-8 -320q0 -72 2.5 -139t6.5 -125.5t9.5 -106t13.5 -81.5q15 -74 42 -133t63.5 -99.5t81.5 -62t95 -21.5q54 0 103.5 25.5t92 73.5t77 116.5t58.5 154.5l-15 1030l286 35l-7 -364v1q4 -180 6 -359t5 -356q0 -100 4.5 -162t9.5 -89
q9 -38 37 -57t79 -19q25 0 61.5 3.5t93.5 14.5l5 -128zM1054 1349l-87 -53q-54 61 -90 159q-41 -50 -119 -129q-3 -4 -21 -22l-101 -8q155 114 222 197l98 62q33 -113 98 -206z" />
    <glyph glyph-name="Ugrave" unicode="&#xd9;" horiz-adv-x="1343" 
d="M1441 -45l-3 228q-73 -109 -167.5 -164.5t-203.5 -55.5q-97 0 -179.5 34t-151.5 100q-144 132 -189 352q-14 66 -22 173.5t-8 250.5q-1 131 3 264.5t16 251.5q-13 1 -19 2.5t-11 1.5q-148 0 -231 -107q-37 -56 -47.5 -127.5t9.5 -162.5l-234 -126q-46 335 129.5 502.5
t574.5 167.5h115q-20 -157 -26 -316t-8 -320q0 -72 2.5 -139t6.5 -125.5t9.5 -106t13.5 -81.5q15 -74 42 -133t63.5 -99.5t81.5 -62t95 -21.5q54 0 103.5 25.5t92 73.5t77 116.5t58.5 154.5l-15 1030l286 35l-7 -364v1q4 -180 6 -359t5 -356q0 -100 4.5 -162t9.5 -89
q9 -38 37 -57t79 -19q25 0 61.5 3.5t93.5 14.5l5 -128zM713 1375q35 -80 56 -151q7 -52 -4 -46q-22 32 -69.5 122t-56.5 122q-3 37 74 -47z" />
    <glyph glyph-name="circumflex" unicode="&#x2c6;" horiz-adv-x="862" 
d="M870 976l-87 -53q-54 61 -90 159q-41 -50 -119 -129q-3 -4 -21 -22l-101 -8q155 114 222 197l98 62q33 -113 98 -206z" />
    <glyph glyph-name="tilde" unicode="&#x2dc;" horiz-adv-x="1118" 
d="M960 1632q-10 -156 -74.5 -234t-171.5 -78q-52 0 -96 19t-86 59q-44 41 -76 62.5t-63 21.5q-49 0 -68.5 -45t-23.5 -121h-140q7 154 76 232.5t169 78.5q51 0 94 -19.5t86 -57.5q43 -39 77.5 -59.5t63.5 -20.5q47 0 68.5 45t24.5 117h140z" />
    <glyph glyph-name="cedilla" unicode="&#xb8;" horiz-adv-x="862" 
d="M456 0l-42 -64q71 -22 71 -83q0 -51 -56.5 -94t-125.5 -43q-31 0 -66 7l55 76q34 -22 60 -22q64 0 64 52q0 59 -98 59l76 112h62z" />
    <glyph glyph-name="Scaron" unicode="&#x160;" horiz-adv-x="1141" 
d="M930 2049l-228 -379h-227l-228 379h159l185 -256l184 256h155zM206 269q117 -81 220 -120t195 -39q63 0 110.5 17.5t80.5 50.5q25 35 37 81t1 97q-23 106 -207 241l-162 127q-97 69 -159.5 120t-87.5 76q-53 64 -77 169q-42 202 95 347q69 71 159.5 107.5t205.5 36.5
q72 0 168 -24.5t216 -75.5l4 -298h-124q-1 7 -2.5 18.5l-3 23t-3 20.5t-1.5 12q-9 40 -33.5 73.5t-62 57t-86 36.5t-104.5 13q-114 0 -182 -70q-30 -35 -40 -74.5t0 -89.5q8 -32 24.5 -63t37.5 -60q29 -30 84.5 -74t133.5 -101l142 -104q121 -88 192 -173t88 -164
q42 -209 -124 -356q-80 -72 -186.5 -108t-238.5 -36q-205 0 -455 114z" />
    <glyph glyph-name="scaron" unicode="&#x161;" horiz-adv-x="914" 
d="M817 1676l-228 -379h-227l-228 379h159l185 -256l184 256h155zM153 239q166 -105 287 -105q35 0 63.5 9t48 25t27 38t1.5 48q-5 29 -40.5 71t-99.5 99l-114 103q-83 75 -131.5 150t-60.5 128q-15 74 6 140.5t75 122.5q55 56 129 84t161 28q46 0 107.5 -10t138.5 -35
l3 -270h-115l-10 50q1 10 0 17q-20 102 -165 102q-163 0 -138 -122q15 -66 148 -189v1l103 -110q85 -79 133.5 -145t60.5 -123q34 -146 -97 -260q-125 -110 -315 -110q-132 0 -349 77z" />
    <glyph glyph-name="Zcaron" unicode="&#x17d;" horiz-adv-x="1145" 
d="M910 2049l-228 -379h-227l-228 379h159l185 -256l184 256h155zM61 151l815 1110q-25 -4 -54 -5t-55 -1q-48 0 -103.5 7.5t-126.5 24.5l2 -1l-108 22q-22 7 -39.5 11t-29.5 8q-43 11 -72.5 14t-44.5 3q-33 0 -84 -21t-120 -67l-6 158q132 151 307 151q20 0 54.5 -4.5
t85.5 -16.5l-2 3q29 -6 59.5 -14.5t61.5 -14.5q127 -27 263 -27q75 0 149.5 18t149.5 51l1 -204l-797 -1094q35 5 67.5 7t61.5 2q63 0 179 -18l186 -32q14 -2 38 -5t64 -11q33 -6 59 -10t41 -4q139 0 224 155l55 -20l1 -121q-66 -123 -144.5 -182.5t-168.5 -59.5
q-42 0 -101 8.5t-140 24.5l-138 28q-54 12 -104.5 18t-88.5 6q-59 0 -156.5 -21.5t-238.5 -63.5z" />
    <glyph glyph-name="zcaron" unicode="&#x17e;" horiz-adv-x="910" 
d="M802 1676l-228 -379h-227l-228 379h159l185 -256l184 256h155zM142 184l635 725q-23 1 -62 5t-86 9q-31 3 -63.5 6.5t-61.5 4.5q-32 6 -56 8t-44 2q-131 0 -297 -170v183q183 195 354 195q25 0 51.5 -2.5t57.5 -6.5l88 -10q32 -5 61 -6.5t52 -1.5q134 0 278 54l-23 -232
l-591 -703h12q37 0 67 -1.5t52 -3.5l71 -10q32 -5 66.5 -8t63.5 -3q109 0 206 51t186 152l3 -194q-177 -240 -375 -240q-25 0 -61 2.5t-83 8.5l-73 7h1q-32 5 -70.5 6.5t-82.5 1.5q-75 0 -148.5 -14.5t-151.5 -39.5z" />
    <glyph glyph-name="brokenbar" unicode="&#xa6;" horiz-adv-x="355" 
d="M86 -213l117 586h98l-117 -586h-98zM238 551l117 586h98l-116 -586h-99z" />
    <glyph glyph-name="Eth" unicode="&#xd0;" horiz-adv-x="1430" 
d="M1366 743q0 -204 -82.5 -368t-221.5 -256q-111 -74 -228.5 -96.5t-298.5 -22.5h-343v740h-168v143h168v606h339q210 0 329.5 -31.5t203.5 -86.5q144 -95 223 -252.5t79 -375.5zM1160 746q0 172 -57 293.5t-169 189.5q-79 48 -169 69t-224 21h-151v-436h327v-143h-327
v-570h151q132 0 231 21.5t181 77.5q103 70 155 186.5t52 290.5z" />
    <glyph glyph-name="eth" unicode="&#xf0;" horiz-adv-x="1118" 
d="M1053 637q0 -323 -136 -495.5t-370 -172.5q-214 0 -352 131t-138 384q0 231 137 360.5t324 129.5q100 0 174 -26.5t157 -79.5q-31 112 -97.5 220.5t-145.5 178.5l-262 -161l-66 97l238 143q-82 68 -156 106.5t-161 82.5v21h296q38 -28 79.5 -59t82.5 -60l212 129l66 -97
l-190 -111q130 -130 219 -305.5t89 -415.5zM769 226q46 59 70.5 143.5t24.5 234.5q0 32 -1.5 59.5t-3.5 57.5q-73 46 -150 67t-157 21q-127 0 -213.5 -80t-86.5 -247q0 -180 80 -267t216 -87q64 0 121.5 22t99.5 76z" />
    <glyph glyph-name="Yacute" unicode="&#xdd;" horiz-adv-x="1180" 
d="M583 -121q81 -79 160.5 -118t154.5 -39q227 0 244 468l6 159q-72 -146 -149 -219.5t-153 -73.5q-165 0 -256 319l-218 746l1 -1q-81 270 -161 270q-65 0 -215 -168l-6 177q70 90 135.5 135.5t128.5 45.5q71 0 133.5 -37.5t109.5 -103.5q45 -63 89 -168t86 -247v1
l159 -549q24 -82 45 -125t38 -43q18 0 46 27.5t63 78.5q38 55 74 123t65 143l33 859l293 23l-28 -356v1l-30 -786q-30 -839 -598 -839q-91 0 -189.5 27.5t-207.5 86.5zM481 1372q77 84 74 47q-9 -32 -56.5 -122t-69.5 -122q-11 -6 -4 46q21 71 56 151z" />
    <glyph glyph-name="yacute" unicode="&#xfd;" horiz-adv-x="1020" 
d="M480 -424q63 -32 120 -49.5t111 -17.5q121 0 172 89q26 48 41.5 133t19.5 213l12 437q-25 -65 -49 -118.5t-51 -100.5l-1 3q-93 -165 -176 -165q-48 0 -88.5 23.5t-70.5 71.5q-29 42 -61.5 116t-70.5 180l-126 390q-64 187 -103 187q-43 0 -146 -177l-49 24l-3 121
q60 114 128.5 169t143.5 55q101 0 161 -86q27 -38 59.5 -115.5t73.5 -197.5l112 -330l-1 2q25 -76 45.5 -114.5t32.5 -38.5q23 0 51 41t62 118q10 17 44.5 106.5t96.5 255.5q1 81 4.5 169t4.5 166l273 16l-26 -351q-5 -174 -11 -351.5t-13 -352.5q-8 -180 -52 -321.5
t-122.5 -238.5t-190.5 -148t-257 -51q-110 0 -245 48zM402 999q77 84 74 47q-9 -32 -56.5 -122t-69.5 -122q-11 -6 -4 46q21 71 56 151z" />
    <glyph glyph-name="Thorn" unicode="&#xde;" horiz-adv-x="1158" 
d="M1095 787q0 -92 -35 -176.5t-95 -141.5q-78 -75 -187.5 -111t-260.5 -36h-168v-322h-198v1489h198v-270h175q133 0 230 -22.5t164 -66.5q83 -53 130 -138t47 -205zM889 782q0 72 -26 125.5t-82 88.5q-48 30 -112 42.5t-154 12.5h-166v-563h137q119 0 195 20.5t123 65.5
q44 41 64.5 92t20.5 116z" />
    <glyph glyph-name="thorn" unicode="&#xfe;" horiz-adv-x="1132" 
d="M1073 588q0 -279 -133.5 -444.5t-337.5 -165.5q-83 0 -147 19t-131 59v-468h-188v1968h188v-556q70 63 155.5 105.5t186.5 42.5q192 0 299.5 -152t107.5 -408zM879 567q0 191 -61 296.5t-198 105.5q-80 0 -154.5 -35.5t-141.5 -91.5v-633q74 -36 126.5 -49t120.5 -13
q146 0 227 107t81 313z" />
    <glyph glyph-name="multiply" unicode="&#xd7;" horiz-adv-x="757" 
d="M607 164l-49 -49l-190 191l-189 -191l-49 49l191 189l-191 190l49 49l189 -191l190 191l49 -49l-191 -190z" />
    <glyph glyph-name="onesuperior" unicode="&#xb9;" horiz-adv-x="596" 
d="M573 1093l-86 -436q-11 -50 -11 -68q0 -19 56 -26l59 -3l-9 -44h-372l8 44l61 3q49 4 58.5 15t24.5 79l56 281q5 22 5 40q0 26 -68 35l-45 8l9 45z" />
    <glyph glyph-name="twosuperior" unicode="&#xb2;" horiz-adv-x="596" 
d="M187 516l20 101q155 95 247.5 186.5t92.5 148.5q0 94 -84 94q-111 0 -132 -118h-53l26 131q96 34 180 34q190 0 190 -134q0 -72 -49.5 -117t-327.5 -225h310l-20 -101h-400z" />
    <glyph glyph-name="threesuperior" unicode="&#xb3;" horiz-adv-x="596" 
d="M185 545l72 75q80 -64 161 -64q42 0 72.5 31t30.5 74q0 115 -176 115q-22 0 -44 -3l30 86q19 1 34 1q47 0 101 -11q81 37 81 112q0 85 -93 85q-89 0 -112 -105h-53l22 116q87 36 173 36q178 0 178 -109q0 -91 -142 -155q105 -39 105 -136q0 -77 -70.5 -130t-176.5 -53
q-89 0 -193 35z" />
    <glyph glyph-name="onehalf" unicode="&#xbd;" horiz-adv-x="1262" 
d="M528 1093l-86 -436q-10 -51 -10 -68q0 -19 56 -26l59 -3l-9 -44h-373l9 44l61 3q48 4 58 15t25 79l55 281q5 22 5 40q0 26 -68 35l-45 8l9 45zM160 -27l1020 1120h100l-1023 -1120h-97zM778 0l19 103q155 94 248 185t93 148q0 94 -85 94q-111 0 -131 -117h-54l27 131
q94 34 180 34q189 0 189 -133q0 -72 -49.5 -117t-327.5 -225h310l-20 -103h-399z" />
    <glyph glyph-name="onequarter" unicode="&#xbc;" horiz-adv-x="1262" 
d="M546 1093l-86 -436q-10 -51 -10 -68q0 -19 56 -26l59 -3l-9 -44h-373l9 44l61 3q48 4 58 15t25 79l55 281q5 22 5 40q0 26 -68 35l-45 8l9 45zM178 -27l1020 1120h100l-1023 -1120h-97zM981 164l-249 18l15 79l355 317h68l-68 -342l110 -7l-44 -80l-82 8q-10 -55 -10 -83
q0 -22 53 -25l60 -4l-9 -45h-360l9 45l57 4q51 3 66 15t21 53q3 17 8 47zM997 244l41 202l-215 -191z" />
    <glyph glyph-name="threequarters" unicode="&#xbe;" horiz-adv-x="1262" 
d="M174 545l73 75q79 -64 160 -64q41 0 71.5 31t30.5 74q0 115 -176 115q-22 0 -44 -3l30 86q19 1 36 1q46 0 100 -11q80 37 80 112q0 85 -93 85q-88 0 -112 -105h-53l24 116q86 36 171 36q179 0 179 -109q0 -91 -143 -155q106 -39 106 -136q0 -77 -71 -130t-177 -53
q-89 0 -192 35zM178 -27l1020 1120h100l-1023 -1120h-97zM981 164l-249 18l15 79l355 317h68l-68 -342l110 -7l-44 -80l-82 8q-10 -55 -10 -83q0 -22 53 -25l60 -4l-9 -45h-360l9 45l57 4q52 3 66.5 15t20.5 53q3 17 8 47zM997 244l41 202l-215 -191z" />
    <glyph glyph-name="Cacute" unicode="&#x106;" horiz-adv-x="1230" 
d="M1352 98q-155 -66 -294 -100.5t-264 -34.5q-135 0 -249.5 39t-204 113.5t-151 183.5t-90.5 249q-47 214 -15 396t138 332q113 152 264.5 228t355.5 76q116 0 236.5 -17.5t243.5 -54.5l-31 -326h-122q1 40 -1 66t-6 43q-8 33 -33 62t-70 51q-98 49 -244 49
q-215 0 -333 -191q-42 -66 -70.5 -146.5t-42.5 -180.5q-13 -97 -12 -188.5t20 -178.5q23 -103 65.5 -182t109.5 -137l-1 1q127 -115 313 -115q109 0 229.5 34t257.5 100zM561 1372q77 84 74 47q-9 -32 -56.5 -122t-69.5 -122q-11 -6 -4 46q21 71 56 151z" />
    <glyph glyph-name="macron" unicode="&#xaf;" horiz-adv-x="1118" 
d="M1134 1659h-1150v130h1150v-130z" />
    <glyph glyph-name="periodcentered" unicode="&#xb7;" horiz-adv-x="724" 
d="M482 832h-239v285h239v-285z" />
    <glyph glyph-name="sacute" unicode="&#x15b;" horiz-adv-x="914" 
d="M153 239q166 -105 287 -105q35 0 63.5 9t48 25t27 38t1.5 48q-5 29 -40.5 71t-99.5 99l-114 103q-83 75 -131.5 150t-60.5 128q-15 74 6 140.5t75 122.5q55 56 129 84t161 28q46 0 107.5 -10t138.5 -35l3 -270h-115l-10 50q1 10 0 17q-20 102 -165 102q-163 0 -138 -122
q15 -66 148 -189v1l103 -110q85 -79 133.5 -145t60.5 -123q34 -146 -97 -260q-125 -110 -315 -110q-132 0 -349 77zM330 999q77 84 74 47q-9 -32 -56.5 -122t-69.5 -122q-11 -6 -4 46q21 71 56 151z" />
    <glyph glyph-name="Tcedilla" unicode="&#x162;" horiz-adv-x="1196" 
d="M499 0v1313h-500v176h1198v-176h-500v-1293h125q1 -18 3.5 -45.5t2.5 -63.5q0 -162 -87 -248t-220 -86q-37 0 -87 6t-90 18v160h9q24 -11 63 -22.5t79 -11.5q94 0 135 39.5t41 126.5q0 21 -0.5 46.5t-2.5 60.5h-169z" />
    <glyph glyph-name="Amacron" unicode="&#x100;" horiz-adv-x="1228" 
d="M991 1698h-754v154h754v-154zM162 455l53 -11q59 -262 218 -285q14 -2 29 -3t29 -1q63 0 114.5 23t89.5 71q53 60 105 166.5t110 262.5l255 701q-39 3 -74 5.5t-64 2.5q-97 0 -166.5 -25.5t-113.5 -73.5q-22 -25 -30 -57.5t1 -71.5q6 -29 27.5 -71t56.5 -99l-400 -111
q-11 121 6.5 215.5t67.5 162.5t154.5 126t255.5 105t304 71.5t295 23.5l294 -1054v2q169 -473 450 -444l25 -60q-71 -23 -137 -36t-129 -13q-83 0 -159.5 27t-142 85t-117.5 148.5t-87 217.5h-497q-50 -133 -105 -228t-114 -149q-125 -115 -329 -115q-192 0 -389 146z
M1033 593h407q-26 86 -48.5 159.5t-44 145t-44 147t-47.5 164.5z" />
    <glyph glyph-name="Ibreve" unicode="&#x12c;" horiz-adv-x="764" 
d="M671 0h-578v152h190v1185h-190v152h578v-152h-190v-1185h190v-152zM681 2003q0 -168 -72.5 -271.5t-225.5 -103.5q-151 0 -225 103.5t-74 271.5h158q0 -135 33 -191.5t108 -56.5q71 0 105.5 53.5t34.5 194.5h158z" />
    <glyph glyph-name="currency" unicode="&#xa4;" 
d="M769 322l110 -138l-38 -31l-109 139q-116 -78 -228 -78q-110 0 -194 78l-165 -139l-25 31l166 138q-43 75 -43 148q0 143 126 273l-110 139l38 31l110 -138q114 77 227 77q110 0 194 -77l166 138l25 -31l-167 -139q43 -75 43 -147q0 -141 -126 -274zM818 579
q0 87 -56 142.5t-142 55.5q-118 0 -209 -89t-91 -203q0 -85 56.5 -140.5t142.5 -55.5q116 0 207.5 88.5t91.5 201.5z" />
    <glyph glyph-name="segol" unicode="&#x5b6;" horiz-adv-x="1068" 
d="M443 -226q-29 0 -48 19t-19 48t19 48t48 19t48 -19t19 -48t-19 -48t-48 -19zM625 -226q-29 0 -48 19t-19 48t19 48t48 19t48 -19t19 -48t-19 -48t-48 -19zM534 -412q-29 0 -48 19t-19 48t19 48t48 19t48 -19t19 -48t-19 -48t-48 -19z" />
    <glyph glyph-name="patah" unicode="&#x5b7;" horiz-adv-x="1068" 
d="M400 -182v83h268v-83h-268z" />
    <glyph glyph-name="vav" unicode="&#x5d5;" horiz-adv-x="561" 
d="M416 0h-173v979q0 59 -28 90.5t-88 31.5q-17 0 -47.5 -2.5t-59.5 -7.5v196q26 4 69.5 7t74.5 3q122 0 187 -79.5t65 -219.5v-998z" />
    <glyph glyph-name="zayin" unicode="&#x5d6;" horiz-adv-x="638" 
d="M463 908q-64 0 -94.5 -43.5t-30.5 -107.5v-757h-173v761q0 54 16 98t42 75q23 28 52 43t53 18l-269 120v212l558 -248v-212q-57 25 -88 33t-66 8z" />
    <glyph glyph-name="het" unicode="&#x5d7;" horiz-adv-x="1402" 
d="M151 1268q78 11 213.5 20t263.5 9q189 0 310 -36.5t190 -108.5q72 -74 100.5 -186t28.5 -267v-699h-173v693q0 106 -23 185t-76 128q-54 49 -141.5 72t-219.5 23q-75 0 -160 -5.5t-140 -9.5v-1086h-173v1268z" />
    <glyph glyph-name="tet" unicode="&#x5d8;" horiz-adv-x="1432" 
d="M1303 606q0 -165 -38 -288t-112 -200q-76 -79 -180 -114t-247 -35q-294 0 -435.5 159t-141.5 465v673h173v-671q0 -229 95 -329.5t309 -100.5q89 0 166.5 19.5t127.5 68.5q54 52 82 136.5t28 226.5v214q0 86 -17.5 139.5t-46.5 82.5q-30 30 -67.5 39.5t-74.5 9.5
q-49 0 -92 -7.5t-81 -19.5h-9v199q43 11 101 17.5t118 6.5q87 0 151.5 -34t106.5 -96q42 -60 63 -143t21 -184v-234z" />
    <glyph glyph-name="yod" unicode="&#x5d9;" horiz-adv-x="561" 
d="M416 611h-173v368q0 59 -28 90.5t-88 31.5q-17 0 -47.5 -2.5t-59.5 -7.5v196q26 4 69.5 7t74.5 3q122 0 187 -79.5t65 -219.5v-387z" />
    <glyph glyph-name="finalkaf" unicode="&#x5da;" horiz-adv-x="1272" 
d="M21 1268q78 11 213.5 20t263.5 9q189 0 310 -36.5t190 -108.5q72 -74 100.5 -186t28.5 -267v-1111h-173v1105q0 106 -23 185t-76 128q-54 49 -141.5 72t-219.5 23q-126 0 -261.5 -12.5t-201.5 -18.5h-10v198z" />
    <glyph glyph-name="Yhookabove" unicode="&#x1ef6;" horiz-adv-x="1180" 
d="M775 1901q0 -64 -33 -103t-99 -60v-68h-110v121q47 12 71 31.5t24 58.5q0 24 -19 43.5t-52 19.5q-31 0 -49.5 -4.5t-42.5 -13.5h-3v105q19 6 55.5 12t74.5 6q81 0 132 -43t51 -105zM583 -121q81 -79 160.5 -118t154.5 -39q227 0 244 468l6 159q-72 -146 -149 -219.5
t-153 -73.5q-165 0 -256 319l-218 746l1 -1q-81 270 -161 270q-65 0 -215 -168l-6 177q70 90 135.5 135.5t128.5 45.5q71 0 133.5 -37.5t109.5 -103.5q45 -63 89 -168t86 -247v1l159 -549q24 -82 45 -125t38 -43q18 0 46 27.5t63 78.5q38 55 74 123t65 143l33 859l293 23
l-28 -356v1l-30 -786q-30 -839 -598 -839q-91 0 -189.5 27.5t-207.5 86.5z" />
    <glyph glyph-name="afii57416" unicode="&#x628;" horiz-adv-x="1283" 
d="M487 217q86 0 192.5 8t204 29.5t176.5 54.5t112 60.5t53 61.5t26 34q8 0 6 -23q-4 -32 -26 -86q-29 -69 -57.5 -110t-69.5 -70q-58 -39 -131 -72q-64 -26 -140 -47q-116 -30 -229 -43.5t-219 -13.5q-123 0 -188 10q-107 17 -152 64q-41 37 -41 100q0 25 7 71t16.5 92
t14.5 60.5t15 14.5t12.5 -17.5t5.5 -55.5t58 -69q107 -51 354 -53zM409 -403q0 22 37.5 95.5t48.5 73.5q22 9 64 -33.5t45 -66.5q0 -32 -35 -92t-51 -60q-6 3 -41.5 26.5t-52.5 35.5q-15 10 -15 21z" />
    <glyph glyph-name="comma" unicode="," horiz-adv-x="216" 
d="M193 141l-131 -279h-69l79 279h121z" />
    <glyph glyph-name="colon" unicode=":" horiz-adv-x="546" 
d="M472 112q0 -17 -39 -77q-43 -64 -62 -64q-11 0 -27 11.5t-39 31.5q-43 46 -43 61q0 13 49 82q48 68 60 68q14 0 56 -50q45 -50 45 -63zM472 507q0 -18 -39 -79q-44 -63 -62 -63q-11 0 -27 11.5t-39 32.5q-43 46 -43 60q0 15 49 82q48 68 60 68q14 0 56 -50q45 -48 45 -62
z" />
    <glyph glyph-name="guillemotleft" unicode="&#xab;" horiz-adv-x="481" 
d="M190 262q0 -156 67 -238q21 -26 21 -32q0 -3 -3 -3.5t-6 -0.5q-34 0 -92 81.5t-58 208.5q0 66 32 136t69 100q15 12 26 19.5t20 9.5q14 3 12 -10l-17 -21q-71 -85 -71 -250zM331 259q0 -104 31 -176t33 -76q0 -7 -8 -7q-39 0 -80 85q-23 47 -34.5 88.5t-11.5 91.5
q0 48 9.5 83t36.5 88q49 86 82 86q6 -6 -7 -31q-22 -48 -36.5 -105.5t-14.5 -126.5z" />
    <glyph glyph-name="guillemotright" unicode="&#xbb;" horiz-adv-x="471" 
d="M324 262q0 165 -71 250l-17 21q-2 13 12 10q9 -2 20 -9.5t26 -19.5q37 -30 69 -100t32 -136q0 -127 -58 -208.5t-92 -81.5q-3 0 -6 0.5t-3 3.5q0 6 21 32q67 82 67 238zM183 259q0 69 -14.5 126.5t-36.5 105.5q-13 25 -7 31q33 0 82 -86q27 -53 36.5 -88t9.5 -83
q0 -50 -11.5 -91.5t-34.5 -88.5q-41 -85 -80 -85q-8 0 -8 7q2 4 33 76t31 176z" />
    <glyph glyph-name="semicolon" unicode=";" horiz-adv-x="471" 
d="M382 800q-42 -71 -63 -127t-21 -98l45 -43q43 -43 43 -64q0 -19 -6 -38.5t-16.5 -35.5t-26 -26t-33.5 -10q-69 0 -69 110q0 69 77 256q81 202 127 193zM400 152q3 -20 -3.5 -42t-21 -49.5t-39.5 -50.5q-15 -15 -24 -15q-7 0 -27 16.5t-36 29.5t-27.5 24.5t-11.5 19.5
q11 25 17 38q19 42 33 66t24 42t18 30q17 -14 42 -33t38.5 -36.5t17.5 -39.5z" />
    <glyph glyph-name="quoteleft" unicode="&#x2018;" horiz-adv-x="566" 
d="M287 1143q-42 -71 -63 -127t-21 -98l45 -43q43 -43 43 -64q0 -19 -6 -38.5t-16.5 -35.5t-26 -26t-33.5 -10q-69 0 -69 110q0 69 77 256q81 202 127 193z" />
    <glyph glyph-name="quoteright" unicode="&#x2019;" horiz-adv-x="596" 
d="M277 819q42 71 63 127t21 98l-45 43q-43 43 -43 64q0 19 6 38.5t16.5 35.5t26 26t33.5 10q69 0 69 -110q0 -69 -77 -256q-81 -202 -127 -193z" />
    <glyph glyph-name="parenleft" unicode="(" horiz-adv-x="369" 
d="M38 419q0 120 61 242t185 210q8 6 19 2q8 -9 -4 -28q-151 -240 -149.5 -430.5t149.5 -428.5q12 -19 4 -28q-11 -4 -19 2q-124 88 -185 210t-61 242v7z" />
    <glyph glyph-name="parenright" unicode=")" horiz-adv-x="373" 
d="M311 412q0 -120 -61 -242t-185 -210q-8 -6 -19 -2q-8 9 4 28q148 238 149.5 428.5t-149.5 430.5q-12 19 -4 28q11 4 19 -2q124 -88 185 -210t61 -242v-7z" />
    <glyph glyph-name="exclam" unicode="!" horiz-adv-x="485" 
d="M422 140q4 -35 -25 -91q-12 -19 -33.5 -45t-34.5 -31l-69 53q-12 8 -20.5 18t-16.5 26q81 167 97 190l26 -23q69 -54 76 -97zM325 335q-10 -17 -21 -14t-8 18q21 264 -65 497q1 19 44 107t58 87q68 -73 71 -245t-79 -450z" />
    <glyph glyph-name="braceright" unicode="}" horiz-adv-x="871" 
d="M492 556v3q-3 280 -198 484q-118 133 -239 206q-23 47 -38.5 94.5t-15.5 95.5q53 -96 142.5 -171t179.5 -86.5t109 3.5q-16 -18 -16 -44q0 -18 16 -74t16 -94q0 -21 -4 -40q13 11 28 16q17 6 35 6q76 0 103 -72q7 -18 7 -38q0 -74 -71 -101q-13 -3 -20 -5q42 -31 90 -117
q29 -53 61 -63h2l5 -1h5l-2 -1h2h-5l-5 -1h-2q-32 -10 -61 -63q-48 -86 -90 -117q7 -2 20 -5q71 -27 71 -101q0 -20 -7 -38q-27 -72 -103 -72q-18 0 -35 6q-15 5 -28 16q4 -19 4 -40q0 -38 -16 -94t-16 -74q0 -26 16 -44q-19 15 -109 4q-90 -12 -179.5 -87t-142.5 -171
q0 48 15.5 95.5t38.5 94.5q121 73 239 206q195 204 198 484zM115 1114q-3 4 -9 17t-13 27.5t-13 28t-7 19.5q107 -54 248 -216.5t143 -430.5v-3q-2 -268 -143 -430q-141 -163 -248 -217q1 6 7 19.5t13 28t13 27t9 17.5q290 205 292 557q-2 351 -292 556zM519 226
q16 0 28 11.5t12 27.5q0 8 -3 14q-9 23 -35 23q-38 0 -38 -38t36 -38zM519 889q-36 0 -36 -38t38 -38q26 0 35 23q3 6 3 14q0 16 -12 27.5t-28 11.5z" />
  </font>
</defs>
</svg>
